<?xml version="1.0" standalone="no"?>
<!DOCTYPE svg PUBLIC "-//W3C//DTD SVG 1.1//EN" "http://www.w3.org/Graphics/SVG/1.1/DTD/svg11.dtd" >
<svg xmlns="http://www.w3.org/2000/svg" xmlns:xlink="http://www.w3.org/1999/xlink" version="1.1">
<metadata></metadata>
<defs>
<font id="pattayaregular" horiz-adv-x="1034" >
<font-face units-per-em="2048" ascent="1638" descent="-410" />
<missing-glyph horiz-adv-x="444" />
<glyph horiz-adv-x="0" />
<glyph unicode="&#xd;" horiz-adv-x="444" />
<glyph horiz-adv-x="0" />
<glyph horiz-adv-x="0" />
<glyph unicode=" "  horiz-adv-x="444" />
<glyph unicode="&#x09;" horiz-adv-x="444" />
<glyph unicode="&#xa0;" horiz-adv-x="444" />
<glyph unicode="!" horiz-adv-x="526" d="M66 152q0 33 13 62.5t36 51.5q49 47 115 47q33 0 63 -12.5t52 -34.5t34.5 -51.5t12.5 -62.5t-12.5 -63.5t-34.5 -52.5t-52 -35t-63 -13t-62.5 12.5t-52.5 35.5q-23 22 -36 52.5t-13 63.5zM201 473l156 1024l315 43l-297 -1067h-174z" />
<glyph unicode="&#x22;" horiz-adv-x="723" d="M164 1065l153 475h215l-225 -475h-143zM485 1065l154 475h215l-225 -475h-144z" />
<glyph unicode="#" horiz-adv-x="1350" d="M122 440l31 158h216l51 252h-210l31 158h211l75 371h150l-76 -371h265l75 371h150l-76 -371h199l-31 -158h-200l-51 -252h194l-31 -158h-195l-77 -382h-149l77 382h-265l-77 -382h-149l77 382h-215zM518 598h265l51 252h-265z" />
<glyph unicode="$" horiz-adv-x="1122" d="M29 328q0 59 17 110.5t47 88.5q31 37 72.5 57t90.5 20q68 0 116.5 -37.5t59.5 -97.5q-42 0 -78 -13.5t-61 -37.5t-39 -58t-14 -73q0 -72 43 -119t118 -59l138 608l-91 109q-103 122 -145 232q-24 62 -24 130q0 80 33 148.5t94 119.5t143.5 79t177.5 28h4l47 204h105 l-49 -214q120 -24 189 -96q69 -75 69 -181q0 -85 -43 -139q-21 -26 -50.5 -40t-62.5 -14q-77 0 -125 64q39 28 61.5 74.5t22.5 99.5q0 48 -22 82.5t-62 49.5l-114 -500l31 -34q68 -74 70 -76q118 -128 166 -250q27 -70 27 -155q0 -98 -39.5 -184.5t-110.5 -151.5 q-72 -65 -167.5 -101.5t-203.5 -37.5l-58 -256h-103l60 263q-77 12 -140 42.5t-108 76.5t-68.5 107t-23.5 132zM504 111q97 17 153 84q58 69 58 167q0 65 -25 126t-71 127zM541 1257q0 -54 19 -103t56 -101l92 407q-75 -12 -121 -67q-46 -57 -46 -136z" />
<glyph unicode="%" horiz-adv-x="1499" d="M41 1001q0 116 31.5 219t89.5 180q57 77 133 120t162 43q238 0 238 -306q0 -114 -32.5 -216t-90.5 -180t-135 -121.5t-162 -43.5q-234 0 -234 305zM230 950q0 -88 18 -129q17 -41 56 -41t76.5 43.5t66.5 119.5t45 175.5t16 206.5q0 81 -14 117q-15 35 -49 35 q-39 0 -77.5 -45t-69.5 -121t-49.5 -171t-18.5 -190zM246 0l852 1540h147l-852 -1540h-147zM804 293q0 116 31.5 218.5t89.5 179.5q57 77 133 120t162 43q238 0 238 -305q0 -114 -32.5 -216t-90.5 -180t-135 -121.5t-162 -43.5q-234 0 -234 305zM993 242q0 -88 18 -129 q17 -41 56 -41t76.5 43.5t66.5 119.5t45 175t16 206q0 81 -14 117q-15 35 -49 35q-51 0 -103 -78q-49 -75 -80 -196q-32 -125 -32 -252z" />
<glyph unicode="&#x26;" horiz-adv-x="1397" d="M29 328q0 85 29 168.5t82 155.5q52 72 121 123.5t147 74.5v8q-62 51 -91 113q-26 56 -26 147q0 83 35 159.5t97 135.5t144 93t172 34q69 0 128.5 -20.5t102.5 -59.5t66 -91t23 -112q0 -41 -11 -76.5t-32 -60.5t-50.5 -39t-62.5 -14q-38 0 -69.5 16.5t-55.5 46.5 q37 23 60.5 70t23.5 100q0 57 -28.5 90t-77.5 33q-41 0 -79 -23.5t-68 -65.5t-47 -95.5t-17 -110.5q0 -102 55 -172.5t152 -95.5v-8q-73 -14 -139.5 -57.5t-117.5 -109.5q-52 -66 -81 -143.5t-29 -156.5q0 -106 53.5 -165.5t147.5 -59.5q67 0 132.5 28t120.5 79 q56 53 95 124.5t54 154.5q-50 -2 -94 -13q-54 -19 -96 -47.5t-65 -62.5l-5 -1q-24 29 -38 73q-8 29 -8 54q0 57 35 106q23 32 58.5 57.5t78.5 39.5q48 14 139 22q9 1 54 4.5t81 11.5q52 18 98 50q47 33 70 65h5q31 -31 44 -75q7 -22 7 -48q0 -60 -40 -116q-26 -37 -65 -65 t-85 -43q-40 -10 -83 -12q-15 -131 -67 -238.5t-135 -184.5t-193 -118.5t-238 -41.5q-96 0 -173.5 25t-131.5 73q-55 48 -83.5 115.5t-28.5 151.5z" />
<glyph unicode="'" horiz-adv-x="401" d="M164 1065l153 475h215l-225 -475h-143z" />
<glyph unicode="(" horiz-adv-x="895" d="M307 336q0 193 53.5 378.5t153.5 347.5q99 162 238.5 290t309.5 211l27 -82q-159 -94 -285 -287q-127 -195 -193 -436q-71 -257 -71 -516q0 -196 39 -366.5t115 -301.5l-68 -59q-153 153 -236 367t-83 454z" />
<glyph unicode=")" horiz-adv-x="846" d="M-140 -403q158 93 285 287q126 193 193 435q71 257 71 517q0 196 -39 366t-115 301l68 60q155 -157 237 -367q82 -213 82 -455q0 -193 -53 -377.5t-153 -347.5q-100 -162 -240 -290t-309 -211z" />
<glyph unicode="*" horiz-adv-x="1055" d="M175 1050v14q0 5 2 13l260 84q-142 24 -200 64q-26 17 -37 38t-11 47q0 35 16 62q18 28 60 63l207 -182q-35 114 -35 184q0 129 109 129q37 0 88 -16l-51 -297q58 72 107 104.5t93 32.5q47 0 75 -32t28 -84q0 -16 -4 -27l-265 -86q143 -27 199 -65q26 -18 36.5 -39 t10.5 -48q0 -36 -14 -60q-16 -27 -60 -65l-206 183q17 -65 25.5 -107.5t8.5 -77.5q0 -129 -110 -129q-32 0 -86 17l51 297q-58 -72 -104.5 -102.5t-90.5 -30.5q-46 0 -74 32.5t-28 83.5z" />
<glyph unicode="+" horiz-adv-x="905" d="M31 616l37 162h290l62 285h164l-62 -285h299l-35 -162h-301l-63 -294h-164l64 294h-291z" />
<glyph unicode="," horiz-adv-x="442" d="M49 154q0 33 12.5 63t34.5 52t52 35t63 13q67 0 103 -42.5t36 -112.5q0 -45 -18 -100.5t-52 -111.5q-35 -59 -85 -112.5t-111 -95.5q-18 12 -18 35q0 24 13.5 44.5t39.5 47.5q27 28 40 48t13 46q0 24 -27 41q-96 60 -96 150z" />
<glyph unicode="-" horiz-adv-x="594" d="M39 455l37 161h409l-34 -161h-412z" />
<glyph unicode="." horiz-adv-x="539" d="M63 154q0 33 12.5 63t34.5 52t52 35t63 13t63 -13t53 -35t35.5 -52t12.5 -63t-12.5 -63t-35.5 -52t-53 -34.5t-63 -12.5t-63 12.5t-52 34.5t-34.5 52t-12.5 63z" />
<glyph unicode="/" horiz-adv-x="637" d="M23 -512l434 2048h147l-434 -2048h-147z" />
<glyph unicode="0" horiz-adv-x="1118" d="M43 491q0 140 22.5 274t65.5 252t105 215.5t139 166.5q79 72 171 110t194 38q197 0 299 -135q47 -64 71 -155t24 -203q0 -161 -35 -335q-39 -196 -115 -352q-87 -179 -209 -276q-143 -112 -319 -112q-225 0 -327 149q-86 126 -86 363zM349 440q0 -137 26 -211 q32 -95 108 -95q49 0 96.5 39.5t90.5 112.5q84 144 135 372q51 234 51 468q0 127 -28 210q-32 89 -91 89q-48 0 -95.5 -40.5t-91.5 -113.5q-43 -73 -80 -168.5t-63 -204.5q-58 -235 -58 -458z" />
<glyph unicode="1" horiz-adv-x="649" d="M43 0l270 1278h-194l24 94q113 0 210 25q153 40 311 135l-326 -1532h-295z" />
<glyph unicode="2" horiz-adv-x="1008" d="M-25 91q0 75 31 142q52 119 188 255q82 82 125 123q87 86 139.5 142t94.5 117q51 73 78.5 146.5t27.5 152.5q0 117 -36 182q-40 71 -117 71q-35 0 -65.5 -12.5t-51.5 -35.5t-33 -54t-12 -64q0 -71 27.5 -124.5t70.5 -79.5v-8q-35 -32 -76 -50.5t-79 -18.5q-30 0 -57 14 t-47 41q-44 59 -44 157q0 62 28.5 124.5t81.5 112.5q57 53 138 83t182 30q87 0 160 -25.5t126 -73.5q54 -49 83 -118.5t29 -156.5q0 -135 -94 -260q-40 -53 -94.5 -105t-125.5 -109q-84 -66 -127 -98q-146 -110 -230 -201q-48 -51 -80 -109q56 15 125 15q78 0 187 -23 q57 -12 90.5 -17.5t64.5 -5.5q54 0 101.5 23.5t98.5 80.5l6 -4q26 -73 26 -127q0 -55 -22 -100.5t-61 -78.5q-38 -33 -87.5 -51t-103.5 -18q-43 0 -84.5 9.5t-116.5 31.5q-69 20 -118 30.5t-100 10.5q-56 0 -111.5 -13.5t-115.5 -45.5h-8q-12 48 -12 93z" />
<glyph unicode="3" horiz-adv-x="1053" d="M12 338q0 64 16 118t47 93q66 82 185 82q64 0 102 -22q47 -29 58 -83q-105 -7 -149 -83q-31 -55 -31 -138q0 -87 53 -138q48 -48 122 -48q47 0 94 22t85 64q86 98 86 264q0 59 -16.5 117.5t-48.5 109.5q-73 115 -207 160q83 24 148.5 68.5t112.5 102.5q44 55 66.5 114 t22.5 114q0 77 -38 121q-41 47 -118 47q-73 0 -118 -43q-44 -44 -44 -116q0 -50 18 -87q20 -48 60 -59q-75 -69 -156 -69q-30 0 -57 11.5t-47 33.5q-43 46 -43 129q0 68 32 125.5t91 99.5q57 41 134.5 63.5t166.5 22.5q91 0 163 -23.5t122 -66.5q47 -41 71.5 -95t24.5 -114 q0 -107 -70 -205q-77 -108 -211 -176q130 -41 197 -136q61 -86 61 -202q0 -127 -72 -246q-75 -124 -200 -199q-135 -81 -305 -81q-84 0 -158 21q-108 28 -170 97q-80 85 -80 230z" />
<glyph unicode="4" horiz-adv-x="975" d="M-4 533v10q206 245 310 420q138 234 138 416q0 67 -16 127q45 13 102 13q92 0 145 -51q24 -24 37 -56.5t13 -69.5q0 -93 -87 -229q-73 -114 -200 -248q-120 -125 -223 -205l2 -6q37 15 86.5 26t95.5 11q35 0 72.5 -5.5t102.5 -17.5l38 -7l166 478h131l-101 -476 q68 26 130 97l6 -4q33 -56 33 -112q0 -81 -62 -143q-62 -61 -158 -79l-89 -422h-285l153 441l-41 12q-74 22 -123.5 32.5t-103.5 10.5q-62 0 -116 -9t-105 -34h-8z" />
<glyph unicode="5" horiz-adv-x="1059" d="M31 288q0 63 19 116t55 92q73 79 191 79q125 0 146 -104q-85 -10 -134.5 -60.5t-49.5 -129.5q0 -72 42 -113t115 -41q59 0 109.5 27.5t86.5 79.5q36 51 55.5 120t19.5 151q0 143 -58.5 219.5t-166.5 76.5q-57 0 -122 -22.5t-146 -70.5l-28 20l159 775q216 -27 343 -27 q92 0 178.5 13.5t178.5 44.5q4 -31 4 -68q0 -105 -52 -167q-59 -70 -183 -70q-67 0 -181 22q-39 6 -89 17l-72 12l-82 -371q129 64 254 64q82 0 149 -29t115 -84t73 -134t25 -175q0 -124 -41.5 -227t-118.5 -179q-76 -75 -184 -115t-237 -40q-182 0 -277.5 77t-95.5 221z " />
<glyph unicode="6" horiz-adv-x="1023" d="M33 530q0 272 97 509q46 111 111 202.5t145 156.5q81 66 172.5 101t189.5 35q66 0 121.5 -16.5t94.5 -46.5q39 -31 60 -74.5t21 -94.5q0 -39 -11 -73t-32 -60t-48 -40.5t-59 -14.5q-34 0 -63 18t-41 47q32 17 49.5 49.5t17.5 69.5q0 50 -26 80q-30 35 -81 35 q-62 0 -124 -50t-117 -142t-97 -216.5t-63 -267.5l7 2q36 94 119.5 143t199.5 49q70 0 128 -24t99 -70q42 -47 64.5 -112.5t22.5 -147.5q0 -150 -74 -287q-73 -134 -195 -215q-61 -41 -130 -63t-140 -22q-109 0 -187.5 31t-128.5 95q-52 65 -77 167.5t-25 246.5zM332 448 q0 -155 44 -230q40 -68 118 -68q43 0 85 32t76 89q34 59 54 136t20 164q0 111 -46 167q-41 48 -118 48q-121 0 -179 -92q-54 -86 -54 -246z" />
<glyph unicode="7" horiz-adv-x="950" d="M116 1311q0 53 20.5 97.5t58.5 75.5t90 48t113 17q45 0 82.5 -7.5t105.5 -25.5q62 -17 105.5 -25t96.5 -8q116 0 276 43l4 -8q0 -32 -24 -84t-70 -127q-41 -66 -97 -152q-135 -205 -221 -356q-116 -205 -165 -378q-26 -95 -26 -179q0 -109 37 -212q-69 -38 -144 -38 q-95 0 -149 66q-56 67 -56 182q0 143 94 319q67 124 207 298q52 66 111 133q119 138 164 211q26 43 26 71q-50 -15 -78 -21t-59 -6q-30 0 -60.5 6t-70.5 17q-42 11 -72.5 16.5t-63.5 5.5q-61 0 -107.5 -24.5t-94.5 -81.5l-6 2q-27 58 -27 125z" />
<glyph unicode="8" horiz-adv-x="1022" d="M-4 378q0 147 93 255q92 108 296 198q-84 87 -128 160q-56 92 -56 184q0 77 33 145t93 120q61 52 141.5 81t173.5 29q81 0 152 -20t123 -58t81 -90.5t31 -115.5q0 -103 -74 -194.5t-227 -175.5q64 -59 104.5 -100.5t73.5 -88.5q81 -116 85 -244q0 -95 -40 -181t-112 -151 q-73 -66 -170 -103.5t-208 -39.5q-100 0 -184.5 27.5t-146.5 78.5q-63 52 -98 124.5t-36 159.5zM266 380q0 -114 55 -183q54 -68 140 -68q48 0 89.5 20t72.5 56q30 36 47 82.5t17 97.5q-1 92 -68 192q-27 40 -63 80t-87 91q-98 -67 -150.5 -162t-52.5 -206zM491 1248 q0 -73 45 -144q38 -62 106 -127q77 66 122 154q45 87 45 167q0 72 -36.5 113t-99.5 41q-39 0 -73 -15t-58 -43q-24 -27 -37.5 -64.5t-13.5 -81.5z" />
<glyph unicode="9" horiz-adv-x="1001" d="M27 226q0 80 42 134q43 56 105 56q37 0 66 -18.5t39 -47.5q-31 -18 -49 -50t-18 -67q0 -42 26.5 -71t76.5 -29q63 0 123.5 51t112.5 143q51 92 88 216.5t56 267.5l-7 -2q-36 -94 -119 -143t-199 -49q-71 0 -129 24t-99 70q-42 47 -64.5 112.5t-22.5 147.5q0 150 80 282 q38 63 91.5 116t116.5 90q131 78 284 78q190 0 285.5 -135t95.5 -404q0 -139 -23.5 -268t-68.5 -241q-44 -111 -106 -202.5t-138 -156.5q-77 -66 -165 -101t-183 -35q-68 0 -122.5 16.5t-93.5 47.5q-81 62 -81 168zM315 977q0 -107 41 -161q38 -50 103 -50q134 0 199 106 q57 95 57 271q0 101 -24 165q-35 94 -126 94q-52 0 -98 -36.5t-80 -98.5q-34 -61 -53 -137t-19 -153z" />
<glyph unicode=":" horiz-adv-x="547" d="M84 276q0 33 12.5 63.5t34.5 52.5t52 35t63 13t63 -13t53 -35t35.5 -52.5t12.5 -63.5t-12.5 -63t-35.5 -51q-23 -22 -53 -34.5t-63 -12.5t-63 12.5t-52 34.5q-22 21 -34.5 51t-12.5 63zM186 768q0 33 12.5 63t34.5 53t52 35.5t63 12.5t63 -12.5t53 -35.5t35.5 -53 t12.5 -63t-12.5 -63t-35.5 -52t-53 -34.5t-63 -12.5t-63 12.5t-52 34.5t-34.5 52t-12.5 63z" />
<glyph unicode=";" horiz-adv-x="565" d="M94 186q0 33 12.5 63t34.5 53t52 35.5t63 12.5q67 0 103 -42.5t36 -112.5q0 -45 -18 -100.5t-52 -111.5q-35 -59 -85 -112.5t-111 -95.5q-18 12 -18 35q0 24 13.5 44.5t39.5 47.5q27 28 40 48t13 46q0 24 -27 41q-96 60 -96 149zM193 678q0 33 12.5 63t34.5 53 q21 23 51 35.5t63 12.5t63 -12.5t53 -35.5t35.5 -53t12.5 -63t-12.5 -63t-35.5 -52t-53 -34.5t-63 -12.5t-63 12.5t-51 34.5q-22 22 -34.5 52t-12.5 63z" />
<glyph unicode="&#x3c;" horiz-adv-x="733" d="M14 487l19 84l690 349l-14 -164l-455 -238l373 -194l-45 -158z" />
<glyph unicode="=" horiz-adv-x="1055" d="M66 207l49 229h753l-47 -229h-755zM156 647l49 230h753l-47 -230h-755z" />
<glyph unicode="&#x3e;" horiz-adv-x="741" d="M14 166l15 164l454 237l-372 195l45 158l567 -322l-18 -84z" />
<glyph unicode="?" horiz-adv-x="903" d="M95 164q0 33 13 63t36 52q49 47 115 47q33 0 63 -12.5t52 -34.5t34.5 -52t12.5 -63q0 -66 -47 -115q-22 -23 -52 -36t-63 -13t-62.5 13t-52.5 36t-36 52.5t-13 62.5zM103 1221q0 72 32 134.5t90 109.5t135.5 72.5t166.5 25.5q165 0 262 -75q47 -37 71 -89.5t24 -118.5 q0 -63 -21.5 -116.5t-61.5 -103.5q-33 -41 -73.5 -77.5t-109.5 -94.5q-66 -55 -108 -94t-75 -82q-84 -109 -84 -237h-135q0 136 61 250q25 46 57 88.5t76 90.5q20 23 19 22q39 43 65.5 75t48.5 66q60 97 60 203q0 90 -35.5 138t-101.5 48q-33 0 -62.5 -12.5t-50.5 -35.5 t-33 -54t-12 -66q0 -52 26.5 -97t71.5 -65v-8q-36 -33 -77 -51t-78 -18q-65 0 -107 48q-41 47 -41 124z" />
<glyph unicode="@" horiz-adv-x="1410" d="M-19 312q0 125 29.5 244t85.5 226q54 104 132 191t173 150q199 131 431 131q109 0 200 -29.5t157 -88.5q68 -61 105 -149.5t37 -202.5q0 -150 -63 -291q-30 -65 -71 -120.5t-90 -95.5q-50 -40 -105 -62t-111 -22q-69 0 -110 33t-45 95q-56 -74 -113.5 -111t-122.5 -37 q-79 0 -122 53.5t-43 156.5q0 59 14.5 121t41.5 120q26 57 62 107t77 87q91 79 178 79q32 0 55 -12.5t53 -43.5l33 51l155 -15l-95 -361q-14 -54 -21 -85.5t-7 -55.5q0 -27 8 -43q11 -21 32 -21q30 0 69.5 38.5t75.5 102.5q38 69 61 154t23 173q0 159 -78 242.5t-225 83.5 q-88 0 -173.5 -29.5t-161.5 -83.5t-139.5 -127.5t-108.5 -160.5q-47 -89 -72 -185.5t-25 -194.5q0 -192 84 -280q81 -87 249 -87q127 0 234 49q106 47 173 134q25 -12 40 -38.5t15 -68.5q0 -80 -82 -139q-69 -50 -188 -77q-103 -25 -204 -25q-229 0 -357 111 q-150 130 -150 409zM533 399q0 -45 13 -65.5t42 -20.5t61 19q31 17 47 45l103 387q-21 20 -44 20q-37 0 -75.5 -36t-72.5 -96q-34 -58 -54 -125.5t-20 -127.5z" />
<glyph unicode="A" horiz-adv-x="1368" d="M18 686q0 51 31 97.5t88 80.5q58 35 134.5 54.5t164.5 19.5q43 0 107 -6q172 271 344 425q200 179 368 179q100 0 162 -29l-321 -1507h-295l157 743q-74 34 -138.5 51t-135.5 23q-116 -251 -190 -513q-76 -263 -76 -423q0 -79 28 -114q-56 0 -98 5t-79 24q-97 47 -97 188 q0 68 21.5 163t61.5 205q88 242 218 465q-102 -6 -161.5 -30.5t-78.5 -75.5q9 0 18 -21t9 -43q0 -36 -33 -58t-82 -22q-55 0 -90 30q-37 31 -37 89zM727 905q140 -27 250 -71l119 557q-89 -48 -187 -181q-96 -132 -182 -305z" />
<glyph unicode="B" horiz-adv-x="1313" d="M25 993q0 140 107 267q50 60 119.5 110.5t152.5 87.5q175 78 364 78q211 0 331 -100q52 -44 78.5 -102.5t26.5 -123.5q0 -97 -52 -180q-58 -92 -153 -145q123 -22 187 -119q55 -85 55 -211q0 -52 -10 -115t-30 -125q-49 -154 -139 -241q-112 -109 -269 -109 q-85 0 -134 29q-69 40 -69 123q0 55 26 119q38 -41 70 -57.5t68 -16.5q102 0 157 126q23 51 34 115.5t11 126.5q0 118 -41 184q-49 77 -153 77q-55 0 -94 -7l-168 -784h-295l278 1303l303 40l-96 -454h12q59 0 113 29t95 79q40 49 63.5 108t23.5 116q0 44 -15.5 83.5 t-46.5 69.5q-71 68 -208 68q-126 0 -239 -54q-126 -61 -193 -165q-80 -121 -80 -279q0 -66 15 -102q4 -13 10 -23q4 -7 4 -14q-109 0 -164 43.5t-55 144.5z" />
<glyph unicode="C" horiz-adv-x="1018" d="M39 471q0 155 36 323q42 195 120 349q91 179 221 279q148 114 338 114q153 0 243 -64q99 -70 99 -210q0 -88 -32 -135q-38 -54 -112 -54q-31 0 -60.5 11t-55.5 42q18 9 35 28.5t30 45.5q29 58 29 115q0 55 -28 87q-33 38 -97 38q-55 0 -108.5 -40.5t-102.5 -114.5 q-47 -71 -87 -166t-68 -202q-28 -108 -44 -220t-16 -214q0 -76 11.5 -133t37.5 -97q57 -89 197 -89q120 0 223 53.5t176 151.5l47 -21q-39 -98 -107.5 -171.5t-154.5 -121.5q-79 -44 -163 -66t-159 -22q-116 0 -199 27.5t-138 86.5q-56 60 -83.5 156.5t-27.5 233.5z" />
<glyph unicode="D" horiz-adv-x="1358" d="M12 995q0 69 27 136.5t78 128.5q50 60 120.5 110.5t154.5 87.5q178 78 382 78q189 0 318 -83q118 -77 176 -214q53 -130 53 -293q0 -115 -20.5 -233t-58.5 -228q-38 -108 -90.5 -201.5t-115.5 -162.5q-65 -71 -136.5 -109.5t-145.5 -38.5q-124 0 -250 109l-17 -82h-294 l278 1303l303 40l-246 -1148q56 -41 117 -41q59 0 112.5 37t98.5 105q83 125 135 342q47 203 47 417q0 200 -82 298q-76 89 -217 89q-114 0 -212 -34t-170 -98q-74 -66 -114 -159t-40 -207q0 -64 14 -102q4 -13 10 -23q4 -7 4 -14q-107 0 -163 44.5t-56 145.5z" />
<glyph unicode="E" horiz-adv-x="940" d="M14 324q0 81 26 165.5t75 157.5q50 76 120.5 130t157.5 77q-64 46 -94.5 110t-30.5 136q0 79 33.5 157.5t93.5 141.5q62 66 144.5 103.5t177.5 37.5q61 0 115 -16.5t93 -48.5q41 -33 63 -81t22 -110q0 -45 -12 -84t-33 -68t-49 -45t-58 -16q-56 0 -96 55q17 6 34 24.5 t30 44.5q12 25 19 54t7 56q0 58 -35 89q-29 25 -78 25q-44 0 -83 -24t-67 -66q-28 -41 -43.5 -93t-15.5 -106q0 -97 48 -167q52 -78 159 -107q-104 -23 -192 -106q-79 -76 -127 -183q-47 -107 -47 -200t45 -147q50 -60 149 -60q49 0 103.5 13.5t104.5 39.5q116 59 171 156 l47 -21q-81 -177 -247 -282q-80 -50 -170 -76.5t-183 -26.5q-96 0 -168 28.5t-119 80.5q-45 49 -67.5 114t-22.5 138z" />
<glyph unicode="F" horiz-adv-x="940" d="M18 1004q0 106 39.5 201t120.5 167q87 78 221.5 121t317.5 43q35 0 70 -4l52 -5q93 -10 121 -12q43 -4 97 -4q109 0 184 25q-9 -26 -19 -69q-22 -86 -82 -136q-35 -29 -93 -41q-124 0 -287 39l-86 -407h299l-33 -152h-299l-166 -770h-295l295 1368q-63 -2 -110.5 -23.5 t-81.5 -67.5q-74 -101 -74 -333q0 -66 15 -102q4 -13 10 -23q4 -7 4 -14q-110 0 -163 44q-57 48 -57 155z" />
<glyph unicode="G" horiz-adv-x="1184" d="M38 741q0 113 25.5 217.5t74.5 195.5q98 184 267 288q174 108 381 108q86 0 156.5 -19.5t119.5 -55.5q49 -37 75 -89.5t26 -117.5q0 -87 -43 -141q-21 -26 -50.5 -40t-62.5 -14q-38 0 -72 16.5t-57 47.5q36 24 62 79t26 109q0 62 -35.5 95.5t-101.5 33.5 q-60 0 -118.5 -28t-112.5 -79q-53 -50 -98 -119.5t-77 -150.5q-69 -171 -69 -360q0 -155 48.5 -235.5t141.5 -80.5q112 0 195.5 115.5t136.5 341.5l242 -2l-150 -688q-66 -304 -185 -449q-119 -143 -310 -143q-74 0 -135 20t-105 57t-68 89t-24 113q0 59 21 110.5t59 91.5 q37 39 88 60.5t108 21.5q79 0 126.5 -38t47.5 -103q0 -49 -22 -78q-19 25 -50.5 39t-66.5 14q-63 0 -100 -40q-39 -41 -39 -107q0 -65 38 -106q37 -42 95 -42q71 0 122 63.5t79 188.5l102 453h-8q-57 -78 -135.5 -119t-171.5 -41q-90 0 -163 36.5t-125 104.5t-80 164 t-28 213z" />
<glyph unicode="H" horiz-adv-x="1362" d="M25 1004q0 66 28.5 132t81.5 127q51 59 120 109t150 87q172 77 338 77q46 0 82 -4l-131 -610h301l131 610h295l-325 -1532h-295l164 770h-301l-164 -770h-295l297 1393q-138 -58 -212.5 -172t-74.5 -277q0 -66 15 -102q4 -13 10 -23q4 -7 4 -14q-110 0 -163 44 q-56 47 -56 155z" />
<glyph unicode="I" horiz-adv-x="768" d="M12 1004q0 67 29 132.5t82 126.5q50 58 119.5 108.5t150.5 87.5q170 77 338 77q46 0 82 -4l-326 -1532h-294l296 1391q-138 -57 -212 -170t-74 -277q0 -64 14 -102q4 -13 10 -23q4 -7 4 -14q-111 0 -162 44q-57 48 -57 155z" />
<glyph unicode="J" horiz-adv-x="1098" d="M35 -135q0 52 17 101.5t48 87.5q33 40 79.5 62.5t105.5 22.5q41 0 72.5 -3.5t58.5 -15.5q69 -31 69 -118q0 -36 -12 -82q-37 31 -65 43q-25 10 -58 10q-68 0 -107 -47q-18 -20 -27 -47.5t-9 -56.5q0 -73 48 -112q19 -16 43 -24t48 -8q36 0 63.5 10t50.5 36q47 55 81 206 l321 1463q-138 -57 -213.5 -171.5t-75.5 -277.5q0 -66 15 -102q4 -13 10 -23q4 -7 4 -14q-111 0 -162 44q-57 48 -57 155q0 67 29 132.5t82 126.5q50 58 119.5 108.5t150.5 87.5q170 77 338 77h82l-307 -1454q-26 -122 -66.5 -214.5t-101.5 -155.5q-65 -67 -156 -101.5 t-215 -34.5q-145 0 -225 80q-78 76 -78 209z" />
<glyph unicode="K" horiz-adv-x="1231" d="M12 1004q0 67 29 132.5t82 126.5q50 58 119.5 108.5t150.5 87.5q170 77 338 77q46 0 82 -4l-133 -627l58 77q55 76 147 197l76 103l71 95l58 78l40 52l15 19h215l-569 -656q26 0 37 1t34 1q140 0 202 -62q52 -53 52 -157q0 -57 -13 -121.5t-37 -152.5 q-27 -98 -38.5 -149.5t-11.5 -94.5q0 -48 21.5 -84.5t58.5 -50.5q-123 -35 -203 -35q-89 0 -129 45q-31 34 -31 92q0 46 14 106.5t41 156.5q27 97 40.5 160t13.5 116q0 65 -27 101q-30 38 -96 38q-39 0 -68 -8l-164 -772h-294l296 1393q-138 -58 -212 -172t-74 -277 q0 -64 14 -102q4 -13 10 -23q4 -7 4 -14q-111 0 -162 44q-57 48 -57 155z" />
<glyph unicode="L" horiz-adv-x="776" d="M12 983q0 67 29 132.5t82 126.5q51 59 120.5 109.5t149.5 87.5q170 77 338 77q37 0 82 -5l-315 -1470q49 -11 99.5 -33t115.5 -57l112 -60q130 -71 235 -98q60 -16 126 -16q93 0 172 33q-18 -150 -73 -235q-27 -42 -62.5 -64.5t-77.5 -22.5q-68 0 -137 31.5t-149 89.5 q-73 51 -145 112q-169 140 -309 198q-81 34 -174 34h-23q-6 0 -24 -2l305 1419q-138 -57 -212 -169.5t-74 -276.5q0 -63 14 -103q4 -13 10 -23q4 -7 4 -14q-111 0 -162 45q-57 48 -57 154z" />
<glyph unicode="M" horiz-adv-x="1612" d="M137 0l520 1407q-156 -52 -240.5 -169.5t-84.5 -291.5q0 -66 14 -104q3 -11 10 -22q4 -7 4 -15q-104 0 -159 42q-60 46 -60 144q0 64 26 130t74 128q47 60 109.5 112.5t135.5 91.5q73 40 151.5 61.5t155.5 21.5q76 0 155 -29l-47 -1079l451 1079h295l-215 -1507h-295 l131 920l-385 -920h-281l41 924l-342 -924h-164z" />
<glyph unicode="N" horiz-adv-x="1368" d="M12 1006q0 142 86 269q82 121 223 195q145 74 313 74q47 0 82.5 -6.5t79.5 -21.5l247 -1096l229 1112h199l-334 -1532h-283l-237 1016l-234 -1016h-194l308 1403q-141 -50 -212.5 -154.5t-71.5 -255.5q0 -66 14.5 -120.5t40.5 -88.5q-132 0 -194 53.5t-62 168.5z" />
<glyph unicode="O" horiz-adv-x="1362" d="M33 977q0 141 118 273q116 128 301 205q195 81 406 81q256 0 377 -147q108 -132 108 -377q0 -103 -19 -217t-57 -224q-42 -120 -103.5 -224t-141.5 -181q-185 -178 -434 -178q-171 0 -264 93q-103 103 -103 318q0 85 16 189t46 208q32 111 79.5 212t106.5 177 q137 175 307 175q31 0 55.5 -3.5t51.5 -13.5q-89 -52 -176 -226q-80 -161 -131 -363q-52 -203 -52 -363q0 -108 28 -170q30 -67 91 -67q50 0 101.5 39t101.5 110q48 69 89 160.5t71 195.5q65 224 65 424q0 96 -11 161t-39 108q-30 46 -81 68t-131 22q-117 0 -224 -36.5 t-188 -104.5q-84 -71 -131 -169t-47 -217q0 -45 11 -78q3 -13 7 -19q3 -7 3 -13q-102 0 -154.5 40.5t-52.5 131.5z" />
<glyph unicode="P" horiz-adv-x="1174" d="M12 1004q0 67 29 132.5t82 126.5q50 58 119.5 108.5t150.5 87.5q170 77 338 77q237 0 368 -123q58 -55 86.5 -127t28.5 -153q0 -99 -40.5 -197t-116.5 -175q-80 -82 -190.5 -129.5t-243.5 -47.5h-11l-125 -584h-294l278 1303l303 40l-145 -684q97 7 185 90q80 75 127 190 q46 110 46 224q0 120 -59 197q-32 39 -81 60.5t-114 21.5q-124 0 -222.5 -34t-167.5 -98t-104.5 -157t-35.5 -209q0 -64 14 -102q4 -13 10 -23q4 -7 4 -14q-111 0 -162 44q-57 48 -57 155z" />
<glyph unicode="Q" horiz-adv-x="1362" d="M33 977q0 141 118 273q116 128 301 205q195 81 406 81q256 0 377 -147q108 -132 108 -377q0 -153 -40 -317q-45 -182 -128 -327q-94 -166 -223 -262q50 -76 102 -115q67 -50 154 -50q24 0 45 4q-40 -102 -93 -141q-47 -35 -118 -35q-65 0 -110 20.5t-75 58.5 q-25 31 -42 70t-37 98q-88 -28 -190 -28q-171 0 -264 93q-103 103 -103 318q0 85 16 189t46 208q32 111 79.5 212t106.5 177q137 175 307 175q31 0 55.5 -3.5t51.5 -13.5q-89 -52 -176 -226q-80 -161 -131 -363q-52 -203 -52 -363v-46q-1 -19 4 -42q81 19 127 19 q51 0 90 -14.5t74 -41.5q51 66 97 160.5t81 203.5q35 111 54.5 227.5t19.5 225.5q0 96 -11 161t-39 108q-30 46 -81 68t-131 22q-117 0 -224 -36.5t-188 -104.5q-84 -71 -131 -169t-47 -217q0 -45 11 -78q3 -13 7 -19q3 -7 3 -13q-102 0 -154.5 40.5t-52.5 131.5zM545 238 q27 -84 98 -84q44 0 78 22q-21 34 -48 52t-69 18q-36 0 -59 -8z" />
<glyph unicode="R" horiz-adv-x="1231" d="M12 1004q0 67 29 132.5t82 126.5q50 58 119.5 108.5t150.5 87.5q170 77 338 77q116 0 204.5 -26.5t148.5 -74.5q56 -45 84 -103.5t28 -123.5q0 -98 -57 -190q-64 -102 -164 -160q79 -24 111 -77q30 -51 30 -128q0 -57 -13 -121.5t-37 -152.5q-27 -98 -38.5 -149.5 t-11.5 -94.5q0 -48 21.5 -84.5t58.5 -50.5q-123 -35 -203 -35q-89 0 -129 45q-31 34 -31 92q0 46 14 106.5t41 156.5q27 97 40.5 160t13.5 116q0 65 -27 101q-30 38 -96 38q-37 0 -68 -8l-164 -772h-294l278 1303l303 40l-100 -473h16q61 0 115 32.5t95 87.5q38 52 59.5 115 t21.5 122q0 44 -13.5 83t-39.5 68q-59 64 -172 64q-125 0 -226.5 -33.5t-174.5 -98.5q-74 -65 -113 -158t-39 -208q0 -64 14 -102q4 -13 10 -23q4 -7 4 -14q-111 0 -162 44q-57 48 -57 155z" />
<glyph unicode="S" horiz-adv-x="1167" d="M69 322q0 67 21.5 126.5t60.5 103.5t91 68.5t110 24.5q72 0 121 -36t61 -99q-107 0 -170 -57q-30 -27 -46.5 -66t-16.5 -86q0 -90 52.5 -142.5t141.5 -52.5q53 0 99 19.5t80 53.5t52.5 81.5t18.5 101.5q0 100 -68 208q-27 42 -59.5 82.5t-90.5 107.5q-52 60 -87 104 t-63 90q-68 111 -68 218q0 80 34 148.5t97 119.5t147 79t181 28q165 0 265 -78q48 -38 73.5 -91t25.5 -118q0 -85 -43 -139q-20 -26 -49.5 -40t-62.5 -14q-77 0 -125 64q39 28 61.5 74.5t22.5 99.5q0 66 -39 104.5t-107 38.5q-41 0 -75.5 -15t-58.5 -43q-25 -28 -38.5 -66 t-13.5 -83q0 -64 30 -123t86 -123q50 -59 108 -117q135 -140 191 -273q33 -79 33 -174q0 -100 -41 -185.5t-117 -148.5q-76 -64 -177 -99t-216 -35q-98 0 -177 25.5t-136 73.5q-58 48 -88.5 114t-30.5 146z" />
<glyph unicode="T" horiz-adv-x="985" d="M12 1001q0 106 39.5 201.5t120.5 167.5q87 78 221.5 121t317.5 43q105 0 201 -12q30 -3 78 -11q80 -15 154 -20q36 -4 91 -4q68 0 130 12t108 31q-5 -134 -68.5 -197t-187.5 -63q-67 0 -135 11t-183 34l-283 -1315h-294l290 1356h-24q-182 0 -274 -83 q-111 -100 -111 -331q0 -64 14 -102q4 -13 10 -23q4 -7 4 -14q-111 0 -162 44q-57 48 -57 154z" />
<glyph unicode="U" horiz-adv-x="1466" d="M-10 1019q0 67 28.5 132.5t81.5 125.5q50 58 122 107t159 85q182 75 379 75q69 0 115 -10l-250 -946q-35 -128 -35 -221q0 -195 160 -195q226 0 318 422l204 946h289l-200 -946q-64 -300 -224 -454t-409 -154q-204 0 -307 99t-103 294q0 97 29 215l209 831 q-88 -23 -158 -67t-119 -103q-47 -56 -71.5 -122.5t-24.5 -136.5q0 -103 53 -196q-117 0 -181.5 57t-64.5 162z" />
<glyph unicode="V" horiz-adv-x="1260" d="M12 1004q0 67 29 132.5t82 126.5q50 58 119.5 108.5t150.5 87.5q170 77 338 77q46 0 82 -4l18 -1260l431 1254h143l-569 -1526h-295l-33 1399q-146 -55 -225.5 -170.5t-79.5 -284.5q0 -64 14 -102q4 -13 10 -23q4 -7 4 -14q-111 0 -162 44q-57 48 -57 155z" />
<glyph unicode="W" horiz-adv-x="1970" d="M12 1004q0 67 29 132.5t82 126.5q50 58 119.5 108.5t150.5 87.5q170 77 338 77q46 0 82 -4l18 -1260l431 1254h260l18 -1254l430 1254h144l-570 -1526h-295l-24 1042l-389 -1042h-295l-33 1399q-146 -55 -225.5 -170.5t-79.5 -284.5q0 -64 14 -102q4 -13 10 -23 q4 -7 4 -14q-111 0 -162 44q-57 48 -57 155z" />
<glyph unicode="X" horiz-adv-x="1270" d="M12 1004q0 67 29 132.5t82 126.5q50 58 119.5 108.5t150.5 87.5q170 77 338 77q46 0 82 -4l88 -426l238 420h143l-344 -596l192 -930h-325l-109 512l-297 -512h-125l385 680l-151 719q-146 -55 -225.5 -170.5t-79.5 -284.5q0 -64 14 -102q4 -13 10 -23q4 -7 4 -14 q-111 0 -162 44q-57 48 -57 155z" />
<glyph unicode="Y" horiz-adv-x="1270" d="M12 1004q0 67 29 132.5t82 126.5q50 58 119.5 108.5t150.5 87.5q170 77 338 77q46 0 82 -4l178 -733l303 727h136l-398 -895l-135 -631h-328l136 631l-197 768q-146 -55 -225.5 -170.5t-79.5 -284.5q0 -64 14 -102q4 -13 10 -23q4 -7 4 -14q-111 0 -162 44 q-57 48 -57 155z" />
<glyph unicode="Z" horiz-adv-x="1110" d="M23 0l716 1425q-31 0 -81 3q-66 2 -103 2q-85 0 -130 -9q-58 -12 -58 -37q11 0 23 -14q11 -14 11 -51q0 -60 -42 -92q-33 -25 -78 -25q-55 0 -82 39q-23 31 -23 82q0 39 17 77t48 69q70 67 187 67h702l-706 -1403q24 0 94 -2t103 -2q90 0 133 8q31 6 51 14.5t29 22.5 q-11 0 -24 13t-13 51q0 60 41 92q31 26 82 26q52 0 81 -37q23 -32 23 -81q0 -40 -18.5 -82t-51.5 -76q-36 -37 -85 -58.5t-107 -21.5h-739z" />
<glyph unicode="[" horiz-adv-x="819" d="M-15 -492l430 2032h437l-23 -117h-227l-383 -1798h227l-24 -117h-437z" />
<glyph unicode="\" horiz-adv-x="741" d="M86 1536h147l435 -2048h-148z" />
<glyph unicode="]" horiz-adv-x="819" d="M-122 -492l23 117h227l383 1798h-227l24 117h437l-430 -2032h-437z" />
<glyph unicode="^" horiz-adv-x="862" d="M102 1149l435 387h43l122 -387h-65l-123 164l-321 -164h-91z" />
<glyph unicode="_" horiz-adv-x="909" d="M74 0l37 162h716l-34 -162h-719z" />
<glyph unicode="`" horiz-adv-x="412" d="M49 1536h215l60 -387h-113z" />
<glyph unicode="a" horiz-adv-x="1077" d="M-27 317q0 72 14.5 152t42.5 158q64 176 175 284q128 123 295 123q83 0 124.5 -28.5t41.5 -75.5v-15l22 109h295l-147 -696q-9 -30 -9 -66q0 -88 84 -88q56 0 102 57q39 48 64 136h86q-55 -156 -133 -247q-66 -75 -149 -108q-61 -24 -129 -24q-87 0 -138.5 47.5 t-62.5 140.5q-58 -82 -122 -128q-82 -60 -183 -60q-117 0 -189 73q-84 86 -84 256zM276 346q0 -102 38 -138q13 -14 29 -18t36 -4q23 0 48.5 12t49.5 34q54 52 72 135l98 462q0 10 -4.5 23.5t-12.5 25.5q-24 29 -67 29q-41 0 -79.5 -27t-72.5 -75q-60 -87 -99 -227 q-18 -62 -27 -122.5t-9 -109.5z" />
<glyph unicode="b" horiz-adv-x="909" d="M-14 250q0 67 14 117l219 1026l303 41l-98 -461q59 36 100 48q30 9 68 9q115 0 175 -77q67 -87 67 -273q0 -64 -12 -138.5t-37 -147.5q-60 -175 -174 -280q-138 -126 -339 -126q-140 0 -213 68.5t-73 193.5zM279 281q0 -95 108 -95q62 0 122 83q52 74 86 194 q32 118 32 225q0 83 -26 136q-14 29 -35 45t-48 16q-35 0 -63 -7q-42 -11 -58 -30l-112 -520q-6 -25 -6 -47z" />
<glyph unicode="c" horiz-adv-x="786" d="M-27 313q0 63 12.5 140.5t38.5 154.5q61 187 173 298q138 136 327 136q123 0 182 -59q46 -47 46 -129q0 -72 -32 -112q-30 -37 -77 -37q-34 0 -72 24q25 65 25 121q0 39 -14.5 61.5t-42.5 22.5q-60 0 -125 -106q-59 -94 -98 -239q-40 -142 -40 -257q0 -100 38 -138 q33 -34 110 -34q111 0 203 60q39 25 75 59.5t84 87.5h70q-97 -164 -223 -261q-155 -118 -340 -118q-151 0 -233 76q-87 81 -87 249z" />
<glyph unicode="d" horiz-adv-x="1075" d="M-27 317q0 72 14.5 152t42.5 158q64 176 175 284q128 123 295 123q83 0 124.5 -28.5t41.5 -75.5v-8l100 471l303 41l-235 -1106q-9 -30 -9 -66q0 -42 20 -59t64 -17q57 0 102 51q38 45 64 130h86q-54 -154 -133 -243q-67 -74 -149 -103q-59 -21 -129 -21q-85 0 -137 45 t-64 131q-55 -83 -119 -128q-83 -60 -184 -60q-117 0 -189 73q-84 86 -84 256zM276 346q0 -102 38 -138q13 -14 29 -18t36 -4q22 0 47.5 11t48.5 31q54 49 72 128v11l100 469q-7 28 -20 45q-21 26 -64 26q-41 0 -79.5 -27t-72.5 -75q-60 -87 -99 -227q-18 -62 -27 -122.5 t-9 -109.5z" />
<glyph unicode="e" horiz-adv-x="786" d="M-27 313q0 63 12.5 140t37.5 154q28 86 71.5 163t101.5 136q134 136 330 136q125 0 182 -60q44 -47 44 -136q0 -87 -38 -163.5t-105 -135.5q-67 -58 -152 -92.5t-176 -40.5q-5 -52 -5 -82q0 -100 38 -138q33 -34 110 -34q111 0 203 60q39 25 75 59.5t84 87.5h70 q-97 -164 -223 -261q-155 -118 -340 -118q-151 0 -233 76q-87 81 -87 249zM297 512q57 4 111 33t96 76q42 48 66 107.5t24 121.5q0 41 -11.5 62.5t-39.5 21.5q-37 0 -74.5 -36t-72.5 -99q-32 -59 -58 -134t-41 -153z" />
<glyph unicode="f" horiz-adv-x="547" d="M-426 -291q0 69 26.5 118t76.5 85q44 31 102.5 54.5t146.5 49.5l248 1170q38 195 159 284q87 64 214 64q46 0 89.5 -16t77.5 -45q35 -31 54.5 -71.5t19.5 -88.5t-6 -84h-96q4 31 4 55q0 34 -22.5 52t-55.5 18q-41 0 -77 -32q-48 -43 -66 -136l-35 -162h150l-15 -82h-151 l-236 -1106q-39 -195 -155 -284q-85 -64 -211 -64q-46 0 -89.5 16t-77.5 45q-35 31 -55 71.5t-20 88.5zM-313 -262q0 -27 23 -45q27 -23 59 -23q36 0 65 34q32 39 51 126l27 119q-109 -36 -161 -80q-64 -54 -64 -131z" />
<glyph unicode="g" horiz-adv-x="1038" d="M-27 317q0 72 14.5 152t42.5 158q64 176 175 284q128 123 295 123q83 0 124.5 -28.5t41.5 -75.5v-12l22 106h295l-203 -950q97 32 155 96q63 69 103 197h86q-55 -182 -164 -281q-80 -72 -198 -102l-31 -148q-39 -196 -156 -284q-85 -64 -213 -64q-48 0 -89.5 12.5 t-71.5 37.5q-32 25 -50 62.5t-18 86.5q0 116 109 199q82 61 225 106l25 108q-105 -112 -246 -112q-117 0 -189 73q-84 86 -84 256zM246 -285q0 -27 17 -45q19 -22 52 -22q32 0 66 45q34 44 53 137l12 59q-93 -35 -139 -71q-61 -46 -61 -103zM276 346q0 -102 38 -138 q13 -14 29 -18t36 -4q44 0 93 41q53 46 71 119l104 485q0 10 -4.5 23t-12.5 24q-24 29 -67 29q-41 0 -79.5 -27t-72.5 -75q-60 -87 -99 -227q-18 -62 -27 -122.5t-9 -109.5z" />
<glyph unicode="h" d="M-78 0l297 1393l303 41l-110 -516q60 67 129 94q51 20 110 20q104 0 164 -54q64 -59 64 -177q0 -71 -26 -185q-7 -33 -23 -99q-29 -111 -42 -177q-8 -42 -8 -68q0 -41 18.5 -63.5t63.5 -22.5q61 0 103 50q32 38 69 131h86q-76 -225 -192 -315q-82 -64 -189 -64 q-127 0 -188 72q-53 62 -53 159q0 46 11.5 107t34.5 157q23 98 34.5 156.5t11.5 101.5q0 105 -74 105q-52 0 -96 -55q-37 -47 -64 -134l-139 -657h-295z" />
<glyph unicode="i" horiz-adv-x="547" d="M-16 233q0 58 16 134l139 657h295l-147 -696q-8 -26 -8 -66q0 -42 19.5 -59t63.5 -17q30 0 58.5 13.5t52.5 37.5q49 49 74 130h86q-55 -155 -138 -247q-70 -75 -158 -108q-64 -24 -134 -24q-98 0 -155 58q-64 64 -64 187zM180 1296q0 33 12.5 63t34.5 53t52 35.5t63 12.5 t63 -12.5t53 -35.5t35.5 -53t12.5 -63t-12.5 -63t-35.5 -51q-23 -22 -53 -34.5t-63 -12.5t-63 12.5t-52 34.5q-22 21 -34.5 51t-12.5 63z" />
<glyph unicode="j" horiz-adv-x="492" d="M-414 -313q0 115 110 198q81 62 226 107l219 1032h295l-203 -950q97 32 155 96q62 68 104 197h86q-55 -182 -164 -281q-81 -73 -199 -102l-31 -148q-39 -195 -155 -284q-85 -64 -213 -64q-97 0 -161 50q-33 25 -51 62.5t-18 86.5zM-301 -285q0 -27 17 -45q20 -22 53 -22 q32 0 65 45q34 44 53 137l13 59q-95 -36 -140 -71q-61 -46 -61 -103zM164 1298q0 33 12.5 63.5t34.5 52.5t52 35t63 13t63 -13t52 -35t35 -52.5t13 -63.5t-13 -62.5t-35 -51.5t-52 -34.5t-63 -12.5t-63 12.5t-52 34.5q-22 21 -34.5 51t-12.5 63z" />
<glyph unicode="k" horiz-adv-x="1061" d="M-78 0l297 1393l303 41l-153 -721l395 311h203l-410 -285q35 9 68 9q56 0 98.5 -18.5t71.5 -52.5q27 -32 41 -75.5t14 -93.5q0 -47 -8 -78l-23 -102q-10 -33 -10 -66q0 -35 18 -55.5t62 -20.5q61 0 103 50q32 38 69 131h86q-75 -227 -197 -318q-80 -61 -180 -61 q-127 0 -192.5 60t-65.5 173q0 49 12 107l17 80q8 31 8 75q0 48 -17 73.5t-57 25.5q-33 0 -69 -19t-82 -57l-107 -506h-295z" />
<glyph unicode="l" horiz-adv-x="547" d="M-16 233q0 58 16 134l219 1026l303 41l-235 -1106q-8 -26 -8 -66q0 -42 19.5 -59t63.5 -17q30 0 58.5 13.5t52.5 37.5q49 49 74 130h86q-55 -155 -138 -247q-70 -75 -158 -108q-64 -24 -134 -24q-98 0 -155 58q-64 64 -64 187z" />
<glyph unicode="m" horiz-adv-x="1540" d="M-78 0l217 1024h295l-22 -106q60 67 131 95q56 21 119 21q86 0 137 -40q57 -45 73 -136q66 102 152 144q61 30 133 30q103 0 163 -54q64 -59 64 -177q0 -67 -25 -185q-10 -49 -24 -99q-25 -96 -41 -177q-8 -42 -8 -68q0 -41 18.5 -63.5t63.5 -22.5q61 0 103 50 q32 38 69 131h86q-76 -225 -192 -315q-82 -64 -189 -64q-127 0 -188 72q-53 62 -53 159q0 46 11.5 107t34.5 157q23 98 34.5 156.5t11.5 101.5q0 105 -74 105q-52 0 -96 -55q-37 -47 -64 -134l-139 -657h-295l150 707q6 24 6 51q0 41 -13 63q-17 27 -49 27q-58 0 -101 -56 q-38 -48 -65 -135l-139 -657h-295z" />
<glyph unicode="n" d="M-78 0l217 1024h295l-22 -106q60 67 129 94q51 20 110 20q104 0 164 -54q64 -59 64 -177q0 -71 -26 -185q-7 -33 -23 -99q-29 -111 -42 -177q-8 -42 -8 -68q0 -41 18.5 -63.5t63.5 -22.5q61 0 103 50q32 38 69 131h86q-76 -225 -192 -315q-82 -64 -189 -64 q-127 0 -188 72q-53 62 -53 159q0 46 11.5 107t34.5 157q23 98 34.5 156.5t11.5 101.5q0 105 -74 105q-52 0 -96 -55q-37 -47 -64 -134l-139 -657h-295z" />
<glyph unicode="o" horiz-adv-x="899" d="M-29 315q0 63 13 139.5t40 154.5q62 186 177 297q139 136 331 136q263 0 263 -327v-2q6 -2 10 -2h12q68 0 161 38q82 34 155 85l18 -56q-60 -63 -154.5 -107t-208.5 -63q-12 -139 -54 -253.5t-108 -196.5q-65 -80 -149 -123t-178 -43q-152 0 -235 74q-93 82 -93 249z M276 342q0 -51 5.5 -83t18.5 -50q12 -18 31 -25.5t50 -7.5q36 0 73.5 32.5t70.5 90.5t57 136t36 167q-30 8 -42.5 30t-12.5 56q0 42 17 70t47 41q-4 65 -21 93q-9 14 -22.5 20t-34.5 6q-69 0 -135 -104q-61 -94 -100 -232q-38 -135 -38 -240z" />
<glyph unicode="p" horiz-adv-x="958" d="M-186 -512l342 1612h295l-33 -154q104 88 239 88q115 0 178 -70q72 -82 72 -253q0 -165 -42 -310q-53 -185 -154 -287q-124 -126 -308 -126q-71 0 -117 22q-35 16 -57 51l-106 -499zM262 213q7 -20 26.5 -33.5t51.5 -13.5q99 0 170 101q56 79 90 222q27 115 27 228 q0 101 -37 144q-24 26 -66 26q-37 0 -75 -26t-66 -75z" />
<glyph unicode="q" horiz-adv-x="995" d="M-27 317q0 72 14.5 152t42.5 158q64 176 175 284q128 123 295 123q83 0 124.5 -28.5t41.5 -75.5v-4l20 98h295l-311 -1462l-310 -74l129 612q-105 -112 -243 -112q-117 0 -189 73q-84 86 -84 256zM276 346q0 -102 38 -138q13 -14 29 -18t36 -4q43 0 88 37q49 41 72 109 l108 506q-7 28 -21 44q-23 25 -63 25q-41 0 -79.5 -27t-72.5 -75q-60 -87 -99 -227q-18 -62 -27 -122.5t-9 -109.5z" />
<glyph unicode="r" horiz-adv-x="770" d="M-78 0l217 1024h295l-26 -127q70 62 114 88q68 39 133 39q66 0 106 -47q18 -21 27 -48.5t9 -58.5q0 -28 -9 -54t-27 -47q-20 -22 -48.5 -35t-63.5 -13q-27 0 -43 9t-25 26q-8 17 -11 33q-9 43 -18 57q-7 10 -22 10q-43 0 -73 -18t-76 -60l-164 -778h-295z" />
<glyph unicode="s" horiz-adv-x="782" d="M-66 250q0 67 34 121q30 48 75 69q80 142 139 288t113 319l303 40q12 -260 22 -399q10 -143 17 -210q6 -78 6 -136q0 -52 -8 -78q92 54 147 103h86q-73 -85 -150.5 -146t-162.5 -110q-61 -64 -153 -95q-80 -28 -169 -28q-74 0 -131 22.5t-96 62.5q-36 37 -54 82.5 t-18 94.5zM43 293q0 -74 29 -108.5t96 -34.5q77 0 123 42q55 50 55 148q0 41 -5 103l-5 61q-9 79 -18 183l-11 138q-29 -93 -69 -184.5t-97 -202.5q47 -26 47 -71q0 -40 -24 -69q-26 -32 -66 -32q-20 0 -33.5 5.5t-21.5 21.5z" />
<glyph unicode="t" horiz-adv-x="547" d="M-16 233q0 58 16 134l123 575h-68l17 82h67l62 283l303 41l-70 -324h123l-16 -82h-123l-131 -614q-8 -26 -8 -66q0 -42 19.5 -59t63.5 -17q30 0 58.5 13.5t52.5 37.5q49 49 74 130h86q-55 -155 -138 -247q-70 -75 -158 -108q-64 -24 -134 -24q-98 0 -155 58 q-64 64 -64 187z" />
<glyph unicode="u" d="M-16 233q0 58 16 134l139 657h295l-147 -696q-6 -31 -6 -58q0 -84 61 -84q56 0 101 51q36 43 63 130l139 657h295l-147 -696q-9 -30 -9 -66q0 -42 20 -59t64 -17q57 0 102 51q40 45 64 130h86q-55 -156 -133 -247q-66 -75 -149 -108q-61 -24 -129 -24q-88 0 -140 49 t-63 145q-70 -112 -158 -160q-63 -34 -145 -34q-98 0 -155 58q-64 64 -64 187z" />
<glyph unicode="v" horiz-adv-x="848" d="M-18 229q0 50 10 99l147 696h295l-147 -696q-11 -49 -11 -74q0 -32 17 -50t53 -18q48 0 94 34t87 94q38 55 70.5 128t55.5 151q22 76 34.5 148.5t12.5 128.5q-4 -9 -29 -15q-16 -5 -36 -5q-35 0 -55 34q-19 29 -19 70q0 50 32 80.5t95 30.5q68 0 101 -55q28 -46 28 -123 q0 -85 -14.5 -184t-43.5 -195q-70 -228 -189 -359q-144 -161 -337 -161q-119 0 -185 60.5t-66 180.5z" />
<glyph unicode="w" horiz-adv-x="1354" d="M-16 233q0 58 16 134l139 657h295l-147 -696q-6 -25 -6 -52q0 -39 13 -62q15 -28 48 -28q56 0 101 51q36 43 63 130l139 657h295l-147 -696q-11 -52 -11 -74q0 -32 17 -50t53 -18q48 0 94 34t87 94q38 55 70.5 128t55.5 151q22 76 34.5 148.5t12.5 128.5q-4 -9 -29 -15 q-16 -5 -36 -5q-35 0 -55 34q-19 29 -19 70q0 50 32 80.5t95 30.5q68 0 101 -55q28 -46 28 -123q0 -85 -14.5 -184t-43.5 -195q-70 -228 -189 -359q-144 -161 -337 -161q-101 0 -164 43t-81 129q-65 -99 -152 -141q-62 -31 -139 -31q-98 0 -155 58q-64 64 -64 187z" />
<glyph unicode="x" horiz-adv-x="1069" d="M0 367q40 177 94 308q65 162 156 254q105 105 233 105q110 0 169 -82q43 -61 53 -161l18 -156q87 97 130 167.5t48 127.5q-20 -4 -35 -4q-50 0 -74 34q-22 28 -22 80q0 49 42 78q36 23 97 23q27 0 49 -16t37 -43q14 -27 21.5 -60.5t7.5 -67.5q0 -47 -17 -94.5t-53 -99.5 q-33 -48 -82.5 -105t-132.5 -147l19 -143q12 -98 43 -140q28 -39 84 -39q59 0 110 51q49 49 74 130h86q-74 -214 -205 -309q-97 -70 -213 -70q-94 0 -155 84q-67 92 -95 272l-282 -344h-148l414 467l-33 229q-16 99 -34 137q-16 33 -44 33q-31 0 -66.5 -31t-72.5 -92 q-85 -141 -135 -376h-86z" />
<glyph unicode="y" horiz-adv-x="995" d="M-16 233q0 58 16 134l139 657h295l-147 -696q-6 -25 -6 -52q0 -39 13 -62q15 -28 48 -28q54 0 97 48q37 41 63 120l143 670h295l-203 -950q97 32 155 96q63 69 103 197h86q-55 -182 -164 -281q-80 -72 -198 -102l-31 -148q-39 -196 -156 -284q-85 -64 -213 -64 q-48 0 -89.5 12.5t-71.5 37.5q-32 25 -50 62.5t-18 86.5q0 116 109 199q82 61 225 106l25 110q-60 -66 -130 -93q-54 -21 -116 -21q-98 0 -155 58q-64 64 -64 187zM203 -285q0 -27 17 -45q19 -22 52 -22q31 0 66 45q34 44 53 137l12 59q-93 -35 -139 -71q-61 -46 -61 -103z " />
<glyph unicode="z" horiz-adv-x="877" d="M0 0l522 913h-114q-55 0 -80 -5q-33 -6 -33 -27q0 -5 4 -6q8 -2 15 -14q3 -7 3 -25q0 -54 -34 -83q-32 -26 -76 -26q-36 0 -64 23q-30 25 -30 67q0 32 17 68.5t47 66.5q32 33 76.5 52.5t96.5 19.5h527l-502 -866l70 -7q42 -6 85 -6q42 0 67 9t30 32q-20 2 -29.5 13.5 t-9.5 29.5q0 15 7.5 30.5t21.5 28.5q34 29 85 29q46 0 68.5 -27t22.5 -71q0 -36 -17 -74.5t-49 -70.5q-34 -34 -80.5 -54t-103.5 -20h-543z" />
<glyph unicode="{" horiz-adv-x="721" d="M93 471l21 104h65q37 0 62 13t42 43q32 55 37 192q9 213 33 348t70 216q46 82 120.5 117.5t188.5 35.5h88l-18 -102q-53 0 -87 -8t-59 -31q-26 -24 -43.5 -68t-31.5 -117q-23 -122 -48 -434q-6 -54 -17.5 -91.5t-33.5 -65.5q-23 -28 -59.5 -51.5t-93.5 -47.5 q63 -29 88.5 -65t25.5 -94q0 -60 -28 -176l-26 -103q-31 -115 -46 -209q-8 -54 -8 -96q0 -90 34 -141.5t97 -59.5l-19 -92h-59q-134 0 -214 66q-39 32 -59 77t-20 101q0 41 10 92t28 121l7 26q22 76 28 95q43 143 62 234q11 57 11 97q0 42 -18 58t-66 16h-64z" />
<glyph unicode="|" horiz-adv-x="1090" d="M449 -512v2050h190v-2050h-190z" />
<glyph unicode="}" horiz-adv-x="721" d="M-134 -512l19 102q52 0 86 8t59 31q26 24 44 68t32 117q13 68 23.5 168.5t23.5 265.5q4 53 16 90.5t36 66.5q23 29 59.5 52t93.5 47q-61 28 -89 65q-26 34 -26 95q0 49 13.5 112t41.5 167q26 100 40 171.5t14 132.5q0 89 -34.5 141t-97.5 60l19 92h59q135 0 214 -65 q38 -32 58.5 -77.5t20.5 -101.5q0 -79 -37 -212l-35 -122q-47 -155 -62 -234q-11 -57 -11 -97q0 -42 18 -58t66 -16h63l-20 -104h-66q-37 0 -62 -13t-42 -42q-33 -57 -37 -193q-9 -213 -33 -348t-70 -216q-47 -82 -121.5 -117.5t-187.5 -35.5h-88z" />
<glyph unicode="~" horiz-adv-x="883" d="M100 1192q50 99 137.5 150t204.5 51q49 0 90 -9t91 -25q54 -18 86 -26t71 -8t72.5 12t56.5 35l13 -2q-8 -36 -38.5 -72.5t-75.5 -65.5q-47 -31 -103.5 -49t-112.5 -18q-46 0 -87 10t-94 28q-58 20 -91.5 29t-71.5 9q-76 0 -135 -53z" />
<glyph unicode="&#xa2;" horiz-adv-x="786" d="M16 600q0 115 38.5 222.5t107.5 194.5q69 86 159.5 143.5t192.5 75.5l53 234h105l-52 -225q112 -4 175 -55t63 -139q0 -71 -37 -119q-18 -23 -41.5 -36t-50.5 -13t-52 12t-40 33q14 24 25 63q10 34 10 70q0 39 -19 57t-58 19l-175 -763q23 -3 49 -3q65 0 115 23.5 t98 76.5q16 -41 16 -80q0 -45 -20.5 -81.5t-58.5 -62.5q-81 -54 -211 -54h-15q-9 0 -14 1l-57 -249h-103l60 264q-127 34 -195 134.5t-68 256.5zM260 625q0 -150 66 -210l158 691q-48 -28 -89 -76t-71 -112q-31 -64 -47.5 -139t-16.5 -154z" />
<glyph unicode="&#xa3;" horiz-adv-x="932" d="M27 94q49 29 92 104q42 72 65 175l82 383h-196l28 102h190l70 322q18 88 60 159.5t102 122.5q58 49 131 75t154 26q112 0 180 -53q70 -56 70 -154q0 -36 -10 -68.5t-29 -56.5q-41 -53 -109 -53q-32 0 -57 16t-37 39q16 24 29 62q12 41 12 73q0 42 -15 64t-42 22 q-53 0 -93 -67q-39 -65 -71 -207l-70 -322h291l-29 -102h-284l-64 -297q-15 -67 -47.5 -113t-91.5 -78l6 -8q29 11 53.5 13.5t65.5 2.5q37 0 71 -5.5t83 -16.5q45 -11 81 -17t74 -6q61 0 108 25t95 82l6 -2q27 -61 27 -127q0 -100 -78 -161q-38 -29 -91.5 -44.5 t-119.5 -15.5q-45 0 -88.5 8t-109.5 25q-66 16 -114 24t-102 8q-113 0 -260 -43z" />
<glyph unicode="&#xa5;" horiz-adv-x="1143" d="M172 291l29 102h196l29 133h-203l29 103h197l-230 907h336l180 -739l307 739h136l-402 -907h268l-28 -103h-262l-29 -133h268l-28 -102h-263l-61 -291h-328l62 291h-203z" />
<glyph unicode="&#xa8;" horiz-adv-x="803" d="M115 1298q0 24 9.5 47t26.5 41q35 37 89 37q49 0 88 -37q17 -17 27 -40t10 -48q0 -53 -37 -88q-39 -36 -88 -36q-53 0 -89 36t-36 88zM483 1298q0 25 9.5 48t26.5 40q37 37 89 37q25 0 48 -10t40 -27t27 -40t10 -48q0 -53 -37 -88q-18 -17 -41 -26.5t-47 -9.5 q-51 0 -89 36q-36 34 -36 88z" />
<glyph unicode="&#xa9;" horiz-adv-x="1202" d="M104 678q0 108 38.5 203.5t107.5 168.5q68 72 158.5 112t191.5 40q99 0 190 -39.5t159 -110.5q69 -72 108 -168t39 -204t-39 -203.5t-108 -168.5q-68 -72 -159 -112t-190 -40q-100 0 -190.5 40.5t-159.5 112.5t-107.5 167.5t-38.5 201.5zM199 678q0 -90 31.5 -170 t87.5 -140t129.5 -93t156.5 -33q82 0 155.5 33t129.5 93t87.5 140t31.5 170t-31.5 170.5t-87.5 140.5q-56 59 -129.5 92t-155.5 33q-83 0 -156.5 -33t-129.5 -92q-56 -60 -87.5 -140.5t-31.5 -170.5zM311 688q0 64 23.5 120t66.5 97q42 41 97 63.5t116 22.5q48 -2 90.5 -17 t75.5 -41q33 -25 55.5 -60.5t32.5 -75.5l-96 -37q-10 31 -17.5 48t-21.5 33q-39 44 -115 44q-83 0 -136 -46q-58 -52 -58 -141q0 -45 15 -85t42 -70q27 -31 62 -47.5t75 -16.5q48 0 89.5 24.5t64.5 67.5l90 -59q-43 -66 -109.5 -102.5t-142.5 -36.5q-61 0 -115 25t-96 69 q-41 44 -64.5 101t-23.5 120z" />
<glyph unicode="&#xab;" horiz-adv-x="1206" d="M41 487l18 84l629 308l-20 -113l-494 -246l397 -196l-24 -117zM471 487l18 84l629 308l-20 -113l-494 -246l397 -196l-24 -117z" />
<glyph unicode="&#xad;" horiz-adv-x="594" d="M39 455l37 161h409l-34 -161h-412z" />
<glyph unicode="&#xae;" horiz-adv-x="1133" d="M70 684q0 108 38.5 203.5t107.5 168.5q69 72 158.5 112t190.5 40q100 0 190 -39t159 -111q70 -72 108.5 -167.5t38.5 -204.5q0 -108 -38.5 -203.5t-108.5 -168.5q-69 -72 -159 -112t-190 -40t-190 40.5t-159 112.5t-107.5 167.5t-38.5 201.5zM164 684q0 -90 31.5 -170 t87.5 -140t129.5 -93t156.5 -33q82 0 155.5 33t129.5 93t87.5 140t31.5 170t-31.5 170.5t-87.5 140.5q-56 59 -129.5 92t-155.5 33q-83 0 -156.5 -33t-129.5 -92q-56 -60 -87.5 -140.5t-31.5 -170.5zM360 393l2 596h193q110 0 178 -43q33 -22 50.5 -55t17.5 -74 q0 -56 -33 -98t-88 -60l133 -256l-96 -14l-127 256h-135v-252h-95zM455 723h106q58 0 96 17q50 21 50 73q0 49 -50 73q-39 19 -100 19h-102v-182z" />
<glyph unicode="&#xb4;" horiz-adv-x="647" d="M246 1149l186 387h215l-289 -387h-112z" />
<glyph unicode="&#xb8;" horiz-adv-x="465" d="M10 -369l35 56q30 -28 69.5 -45t78.5 -17q45 0 73.5 23.5t28.5 60.5q0 32 -23.5 52t-62.5 20q-53 0 -100 -25l-9 8l117 295l88 -6l-76 -188q41 12 64.5 16t44.5 4q68 0 107.5 -36.5t39.5 -98.5q0 -43 -21 -81.5t-59 -68.5q-37 -30 -86.5 -46.5t-103.5 -16.5 q-62 0 -116 24.5t-89 69.5z" />
<glyph unicode="&#xbb;" horiz-adv-x="1200" d="M31 207l28 117l492 196l-397 246l18 113l504 -308l-23 -110zM485 207l29 117l492 196l-398 246l19 113l503 -308l-22 -110z" />
<glyph unicode="&#x2c6;" horiz-adv-x="600" d="M0 1149l434 387h43l123 -387h-65l-123 164l-322 -164h-90z" />
<glyph unicode="&#x2da;" horiz-adv-x="319" d="M0 1274q0 39 13.5 73t37.5 59q25 25 56.5 39.5t66.5 14.5q68 0 108 -42.5t40 -114.5q0 -79 -46 -125q-23 -23 -54.5 -35.5t-69.5 -12.5q-70 0 -111 39t-41 105zM106 1282q0 -23 14 -37t38 -14q63 0 63 74q0 27 -13 42t-36 15q-28 0 -47 -22t-19 -58z" />
<glyph unicode="&#x2dc;" horiz-adv-x="825" d="M78 1192q49 99 136.5 150t205.5 51q49 0 89 -8.5t91 -25.5q54 -18 86 -26t72 -8q39 0 72.5 12t56.5 35l12 -2q-8 -36 -38.5 -72.5t-75.5 -65.5q-46 -31 -103 -49t-113 -18q-46 0 -86 9.5t-94 28.5q-57 20 -91.5 29t-72.5 9q-76 0 -135 -53z" />
<glyph unicode="&#x401;" horiz-adv-x="940" d="M14 324q0 81 26 165.5t75 157.5q50 76 120.5 130t157.5 77q-64 46 -94.5 110t-30.5 136q0 79 33.5 157.5t93.5 141.5q62 66 144.5 103.5t177.5 37.5q61 0 115 -16.5t93 -48.5q41 -33 63 -81t22 -110q0 -45 -12 -84t-33 -68t-49 -45t-58 -16q-56 0 -96 55q17 6 34 24.5 t30 44.5q12 25 19 54t7 56q0 58 -35 89q-29 25 -78 25q-44 0 -83 -24t-67 -66q-28 -41 -43.5 -93t-15.5 -106q0 -97 48 -167q52 -78 159 -107q-104 -23 -192 -106q-79 -76 -127 -183q-47 -107 -47 -200t45 -147q50 -60 149 -60q49 0 103.5 13.5t104.5 39.5q116 59 171 156 l47 -21q-81 -177 -247 -282q-80 -50 -170 -76.5t-183 -26.5q-96 0 -168 28.5t-119 80.5q-45 49 -67.5 114t-22.5 138zM487 1810q0 25 9.5 48t26.5 40q37 37 89 37q25 0 48 -10t40 -27t27 -40t10 -48q0 -53 -37 -88q-18 -17 -41 -26.5t-47 -9.5q-51 0 -89 36q-36 34 -36 88z M856 1810q0 24 9.5 47t26.5 41q35 37 89 37q25 0 48 -10t40 -27t27 -40t10 -48q0 -53 -37 -88q-18 -17 -41 -26.5t-47 -9.5q-53 0 -89 36t-36 88z" />
<glyph unicode="&#x402;" horiz-adv-x="1485" d="M25 1001q0 106 39.5 201.5t120.5 167.5q87 78 221 121t317 43q82 0 142.5 -6t137.5 -17q79 -13 128.5 -18.5t115.5 -5.5q68 0 130 12t108 31q-5 -135 -68 -197.5t-188 -62.5q-67 0 -135 11t-183 34l-100 -463q67 42 153 64q61 14 123 14q53 0 99 -17.5t80 -51.5 q75 -78 75 -224q0 -74 -14 -158t-39 -190q-34 -145 -85.5 -272.5t-117.5 -223.5q-72 -103 -158.5 -160t-185.5 -57q-63 0 -106 21t-65 57t-22 79t21 85q23 -25 49 -35t58 -10q54 0 99.5 30.5t84.5 94.5q73 119 141 395q19 63 35 163q17 105 17 171q0 78 -33 114 q-28 29 -78 29q-87 0 -160 -55l-153 -715h-295l291 1356h-25q-182 0 -274 -83q-111 -100 -111 -331q0 -66 15 -102q4 -13 10 -23q4 -7 4 -14q-110 0 -163 44q-56 47 -56 154z" />
<glyph unicode="&#x403;" horiz-adv-x="877" d="M25 1004q0 146 66 259q73 126 224 196q167 77 420 77q39 0 94.5 -5.5t65.5 -6.5q130 -13 197 -13q115 0 194 25q-9 -28 -14 -48q-14 -58 -37 -107q-27 -55 -82 -78q-29 -13 -72 -13q-128 0 -313 41l-287 -1331h-295l295 1368q-65 -2 -113 -23.5t-81 -67.5 q-72 -100 -72 -333q0 -66 15 -102q4 -13 10 -23q4 -7 4 -14q-110 0 -163 44q-56 47 -56 155zM754 1661l186 387h215l-248 -387h-153z" />
<glyph unicode="&#x404;" horiz-adv-x="1018" d="M39 471q0 155 36 323q42 195 120 349q91 179 221 279q148 114 338 114q153 0 243 -64q99 -70 99 -210q0 -88 -32 -135q-38 -54 -112 -54q-31 0 -60.5 11t-55.5 42q18 9 35 28.5t30 45.5q29 58 29 115q0 55 -28 87q-33 38 -97 38q-55 0 -108 -40.5t-102 -114.5 q-47 -70 -87 -163.5t-68 -199.5h391l-32 -152h-393q-27 -152 -27 -287q0 -76 11.5 -133t37.5 -97q57 -89 197 -89q120 0 223 53.5t176 151.5l47 -21q-39 -98 -107.5 -171.5t-154.5 -121.5q-79 -44 -163 -66t-159 -22q-116 0 -199 27.5t-138 86.5q-56 60 -83.5 156.5 t-27.5 233.5z" />
<glyph unicode="&#x405;" horiz-adv-x="1112" d="M0 309q0 80 26 143.5t71 107.5q42 41 95.5 63t108.5 22q66 0 115 -27q61 -37 65 -108q-96 0 -160 -43q-79 -53 -79 -150q0 -39 12.5 -74.5t36.5 -61.5q25 -28 62.5 -44t84.5 -16q52 0 96 18.5t76 53.5q66 72 66 200q0 82 -28.5 153t-80.5 137q-45 59 -101 117 q-64 65 -107.5 119.5t-71.5 112.5q-31 61 -31 137q0 79 36.5 146.5t101.5 117.5q64 49 150.5 76t184.5 27q72 0 129 -14q87 -22 137 -69q64 -61 64 -163q0 -45 -11.5 -83t-33.5 -65q-46 -59 -123 -59q-57 0 -94 43q41 23 67 76q25 48 25 101q0 61 -33 95q-40 42 -119 42 q-88 0 -138 -48t-50 -139q0 -70 31 -126.5t89 -112.5t111 -100q65 -55 114.5 -117t81.5 -137q34 -80 34 -191q0 -125 -46.5 -222t-129.5 -163q-80 -63 -183.5 -95t-216.5 -32q-91 0 -169 20t-136 62q-129 91 -129 270z" />
<glyph unicode="&#x406;" horiz-adv-x="766" d="M25 1004q0 66 28.5 132t81.5 127q51 59 120 109t150 87q172 77 338 77q46 0 82 -4l-325 -1532h-295l297 1391q-138 -57 -212.5 -170.5t-74.5 -276.5q0 -66 15 -102q4 -13 10 -23q4 -7 4 -14q-110 0 -163 44q-56 47 -56 155z" />
<glyph unicode="&#x407;" horiz-adv-x="766" d="M25 1004q0 66 28.5 132t81.5 127q51 59 120 109t150 87q172 77 338 77q46 0 82 -4l-325 -1532h-295l297 1391q-138 -57 -212.5 -170.5t-74.5 -276.5q0 -66 15 -102q4 -13 10 -23q4 -7 4 -14q-110 0 -163 44q-56 47 -56 155zM397 1810q0 25 9.5 48t26.5 40q37 37 89 37 q25 0 48 -10t40 -27t27 -40t10 -48q0 -53 -37 -88q-18 -17 -41 -26.5t-47 -9.5q-51 0 -89 36q-36 34 -36 88zM766 1810q0 24 9.5 47t26.5 41q35 37 89 37q49 0 88 -37q17 -17 27 -40t10 -48q0 -53 -37 -88q-39 -36 -88 -36q-53 0 -89 36t-36 88z" />
<glyph unicode="&#x408;" horiz-adv-x="926" d="M-164 -135q0 52 17 101.5t48 87.5q33 40 79.5 62.5t105.5 22.5q41 0 72.5 -3.5t58.5 -15.5q70 -31 70 -118q0 -39 -13 -82q-37 31 -65 43q-24 10 -57 10q-68 0 -108 -47q-18 -20 -27 -47.5t-9 -56.5q0 -73 48 -112q19 -16 43 -24t48 -8q38 0 65 10t49 36q47 55 81 206 l322 1463q-138 -57 -213.5 -171.5t-75.5 -277.5q0 -64 14 -102q4 -13 10 -23q4 -7 4 -14q-111 0 -162 44q-57 48 -57 155q0 67 29 132.5t82 126.5q50 58 119.5 108.5t150.5 87.5q170 77 338 77h82l-307 -1454q-26 -122 -66.5 -214.5t-101.5 -155.5q-65 -67 -156 -101.5 t-215 -34.5q-145 0 -225 80q-78 78 -78 209z" />
<glyph unicode="&#x409;" horiz-adv-x="1673" d="M-61 -16q0 75 26.5 182.5t74.5 232.5t114 257t143 257q80 130 169 242.5t180 195.5q201 185 376 185q38 0 81 -6q49 -7 81 -23l-140 -651q59 20 109 28.5t102 8.5q172 0 263 -107q42 -51 63 -120t21 -152q0 -53 -11 -113.5t-33 -119.5q-23 -63 -59 -119.5t-83 -99.5 q-107 -97 -253 -97q-68 0 -114.5 22t-70.5 61q-23 38 -23 86q0 51 22 102q31 -40 64.5 -57t72.5 -17q54 0 93 32.5t65 88.5q23 50 34 112.5t11 124.5q0 118 -41 179q-49 73 -154 73q-55 0 -100 -22l-160 -750h-295l295 1391q-111 -59 -237 -251q-118 -182 -219 -422 q-98 -235 -159 -463q-63 -232 -63 -374q0 -77 29 -114q-56 0 -98.5 5t-79.5 24q-96 47 -96 188z" />
<glyph unicode="&#x40a;" horiz-adv-x="1907" d="M25 1004q0 66 28.5 132t81.5 127q51 59 120 109t150 87q172 77 338 77q46 0 82 -4l-131 -610h301l131 610h295l-143 -676q61 19 111 28t100 9q171 0 262 -107q42 -50 63 -119.5t21 -152.5q0 -53 -11 -113.5t-33 -119.5q-23 -63 -59 -119.5t-83 -99.5q-107 -97 -252 -97 q-68 0 -115 22t-71 61q-23 38 -23 86q0 51 22 102q31 -40 64.5 -57t73.5 -17q102 0 157 121q23 50 34 112.5t11 124.5q0 118 -41 179q-49 73 -153 73q-56 0 -101 -22l-159 -750h-295l164 770h-301l-164 -770h-295l297 1393q-138 -58 -212.5 -172t-74.5 -277q0 -66 15 -102 q4 -13 10 -23q4 -7 4 -14q-110 0 -163 44q-56 47 -56 155z" />
<glyph unicode="&#x40b;" horiz-adv-x="1526" d="M25 1001q0 106 39.5 201.5t120.5 167.5q87 78 221 121t317 43q82 0 142.5 -6t137.5 -17q79 -13 128.5 -18.5t115.5 -5.5q68 0 130 12t108 31q-5 -135 -68 -197.5t-188 -62.5q-67 0 -135 11t-183 34l-100 -463q67 42 155 64q61 14 126 14q52 0 97 -17t78 -52 q74 -79 74 -224q0 -118 -26 -213l-8 -33q-27 -114 -37 -164t-10 -92q0 -48 21 -84.5t58 -50.5q-123 -35 -215 -35q-89 0 -129 45q-30 33 -30 92q0 49 13 116t46 206q14 63 20 109q9 67 9 94q0 78 -33 114q-28 29 -78 29q-87 0 -160 -55l-153 -715h-295l291 1356h-25 q-182 0 -274 -83q-111 -100 -111 -331q0 -66 15 -102q4 -13 10 -23q4 -7 4 -14q-110 0 -163 44q-56 47 -56 154z" />
<glyph unicode="&#x40c;" horiz-adv-x="1300" d="M25 1004q0 66 28.5 132t81.5 127q51 59 120 109t150 87q172 77 338 77q46 0 82 -4l-131 -612q38 118 121 258q63 107 125 180q73 90 149.5 134t151.5 44q31 0 59 -9t49 -26q46 -38 46 -102q0 -72 -43 -112q-35 -32 -90 -32q-88 0 -121 82q-105 -63 -190 -179t-163 -288 q34 2 47 2h39q140 0 202 -62q52 -53 52 -157q0 -57 -13 -121.5t-37 -152.5q-27 -98 -38.5 -149.5t-11.5 -94.5q0 -48 21.5 -84.5t58.5 -50.5q-123 -35 -203 -35q-89 0 -129 45q-31 34 -31 92q0 46 14 106.5t41 156.5q27 97 40.5 160t13.5 116q0 65 -27 101q-30 38 -96 38 q-36 0 -67 -8l-164 -772h-295l297 1393q-138 -58 -212.5 -172t-74.5 -277q0 -66 15 -102q4 -13 10 -23q4 -7 4 -14q-110 0 -163 44q-56 47 -56 155zM864 1661l187 387h215l-248 -387h-154z" />
<glyph unicode="&#x40e;" horiz-adv-x="1319" d="M25 1004q0 66 28.5 132t81.5 127q51 59 120 109t150 87q172 77 338 77q46 0 82 -4l179 -768l323 762h135l-512 -1211q-28 -63 -55.5 -113.5t-63.5 -94.5q-99 -117 -229 -117q-87 0 -135 43q-45 41 -45 106q0 69 36.5 107.5t104.5 38.5q53 0 86 -31.5t41 -89.5 q34 13 65.5 54t57.5 97l-293 1084q-146 -55 -225.5 -171t-79.5 -284q0 -66 15 -102q4 -13 10 -23q4 -7 4 -14q-110 0 -163 44q-56 47 -56 155zM760 1815q0 67 37.5 108t99.5 41q60 0 93.5 -28.5t33.5 -82.5q0 -24 -7 -43q-13 -36 -42 -55q23 -8 82 -8q93 0 170 50 q95 61 145 190h86q-67 -194 -182 -276q-102 -73 -250 -73q-127 0 -196.5 47t-69.5 130z" />
<glyph unicode="&#x40f;" horiz-adv-x="1362" d="M25 1004q0 66 28.5 132t81.5 127q51 59 120 109t150 87q172 77 338 77q46 0 82 -4l-295 -1380h301l295 1380h295l-325 -1532h-299l-90 -424h-297l92 424h-297l297 1393q-138 -58 -212.5 -172t-74.5 -277q0 -66 15 -102q4 -13 10 -23q4 -7 4 -14q-110 0 -163 44 q-56 47 -56 155z" />
<glyph unicode="&#x410;" horiz-adv-x="1319" d="M-20 686q0 51 31 97.5t88 80.5q58 35 134 54.5t164 19.5q43 0 107 -6q172 271 344 425q200 179 369 179q99 0 161 -29l-321 -1507h-295l158 743q-69 32 -143 52q-56 15 -132 22q-118 -260 -190 -513q-76 -263 -76 -423q0 -77 29 -114q-56 0 -98.5 5t-79.5 24 q-97 47 -97 188q0 68 21.5 163t61.5 205q88 242 218 465q-103 -6 -161.5 -30t-77.5 -76q4 0 8.5 -5.5t8.5 -14.5q9 -22 9 -44q0 -36 -33 -58t-82 -22q-56 0 -91 30.5t-35 88.5zM688 905q140 -27 250 -71l119 557q-89 -48 -187 -181q-96 -132 -182 -305z" />
<glyph unicode="&#x411;" horiz-adv-x="1319" d="M25 1004q0 106 39.5 201t120.5 167q87 78 221 121t317 43q36 0 77 -4l49 -4q142 -12 162 -13q52 -4 113 -4q107 0 185 25q-2 -9 -7.5 -41t-14 -61.5t-20.5 -52.5q-46 -91 -153 -91q-152 0 -346 41l-102 -475q62 19 110 28t98 9q172 0 263 -107q42 -51 63 -120t21 -152 q0 -53 -11 -113.5t-33 -119.5q-23 -63 -59 -119.5t-83 -99.5q-107 -97 -253 -97q-68 0 -114.5 22t-70.5 61q-23 38 -23 86q0 51 22 102q31 -40 64.5 -57t72.5 -17q54 0 93 32.5t65 88.5q23 50 34 112.5t11 124.5q0 118 -41 179q-49 73 -154 73q-57 0 -98 -20l-162 -752h-295 l295 1368q-63 -2 -110.5 -23.5t-81.5 -67.5q-74 -101 -74 -333q0 -66 15 -102q4 -13 10 -23q4 -7 4 -14q-110 0 -163 44q-56 47 -56 155z" />
<glyph unicode="&#x412;" horiz-adv-x="1313" d="M25 993q0 140 107 267q50 60 119.5 110.5t152.5 87.5q175 78 364 78q211 0 331 -100q52 -44 78.5 -102.5t26.5 -123.5q0 -97 -52 -180q-58 -92 -153 -145q123 -22 187 -119q55 -85 55 -211q0 -52 -10 -115t-30 -125q-49 -154 -139 -241q-112 -109 -269 -109 q-85 0 -134 29q-69 40 -69 123q0 55 26 119q38 -41 70 -57.5t68 -16.5q102 0 157 126q23 51 34 115.5t11 126.5q0 118 -41 184q-49 77 -153 77q-55 0 -94 -7l-168 -784h-295l278 1303l303 40l-96 -454h12q59 0 113 29t95 79q40 49 63.5 108t23.5 116q0 44 -15.5 83.5 t-46.5 69.5q-71 68 -208 68q-126 0 -239 -54q-126 -61 -193 -165q-80 -121 -80 -279q0 -66 15 -102q4 -13 10 -23q4 -7 4 -14q-109 0 -164 43.5t-55 144.5z" />
<glyph unicode="&#x413;" horiz-adv-x="877" d="M25 1004q0 146 66 259q73 126 224 196q167 77 420 77q39 0 94.5 -5.5t65.5 -6.5q130 -13 197 -13q115 0 194 25q-9 -28 -14 -48q-14 -58 -37 -107q-27 -55 -82 -78q-29 -13 -72 -13q-128 0 -313 41l-287 -1331h-295l295 1368q-65 -2 -113 -23.5t-81 -67.5 q-72 -100 -72 -333q0 -66 15 -102q4 -13 10 -23q4 -7 4 -14q-110 0 -163 44q-56 47 -56 155z" />
<glyph unicode="&#x414;" horiz-adv-x="1370" d="M-51 166q0 59 21 109.5t59 85.5q37 34 85 52.5t101 18.5q43 0 76 -16l8 41l184 846l303 40l-223 -1050q-15 -64 -26 -96q51 -43 120 -43q59 0 112.5 37t98.5 105q85 127 136 342q47 203 47 417q0 200 -82 298q-76 89 -217 89q-115 0 -213 -34t-170 -98q-74 -66 -114 -159 t-40 -207q0 -66 15 -102q4 -13 10 -23q4 -7 4 -14q-108 0 -163.5 44.5t-55.5 145.5q0 69 27 136.5t78 128.5q50 60 120.5 110.5t154.5 87.5q178 78 381 78q279 0 423 -177q63 -78 93.5 -184t30.5 -229q0 -115 -20.5 -233t-58.5 -228q-38 -108 -90.5 -201.5t-115.5 -162.5 q-65 -71 -136.5 -109.5t-145.5 -38.5q-71 0 -137 28q-77 32 -140 101q-55 -86 -143 -125q-69 -32 -156 -32q-46 0 -89.5 16t-76.5 45q-35 31 -55 71.5t-20 88.5zM61 195q0 -30 23 -49t59 -19q37 0 67 34q37 41 54 126l10 51q-31 20 -61 20q-27 0 -54.5 -12.5t-48.5 -34.5 q-22 -22 -35.5 -52.5t-13.5 -63.5z" />
<glyph unicode="&#x415;" horiz-adv-x="940" d="M14 324q0 81 26 165.5t75 157.5q50 76 120.5 130t157.5 77q-64 46 -94.5 110t-30.5 136q0 79 33.5 157.5t93.5 141.5q62 66 144.5 103.5t177.5 37.5q61 0 115 -16.5t93 -48.5q41 -33 63 -81t22 -110q0 -45 -12 -84t-33 -68t-49 -45t-58 -16q-56 0 -96 55q17 6 34 24.5 t30 44.5q12 25 19 54t7 56q0 58 -35 89q-29 25 -78 25q-44 0 -83 -24t-67 -66q-28 -41 -43.5 -93t-15.5 -106q0 -97 48 -167q52 -78 159 -107q-104 -23 -192 -106q-79 -76 -127 -183q-47 -107 -47 -200t45 -147q50 -60 149 -60q49 0 103.5 13.5t104.5 39.5q116 59 171 156 l47 -21q-81 -177 -247 -282q-80 -50 -170 -76.5t-183 -26.5q-96 0 -168 28.5t-119 80.5q-45 49 -67.5 114t-22.5 138z" />
<glyph unicode="&#x416;" horiz-adv-x="1591" d="M-94 0q84 44 127 147q18 42 29 89.5t23 118.5q12 76 22 125.5t26 96.5q38 118 115 187q88 88 276 88h6q4 73 4 157q0 150 -41 245q-20 47 -59 83q-42 -82 -137 -82q-50 0 -79.5 35t-29.5 90q0 78 61 119q55 37 136 37q134 0 204 -132q57 -106 67 -285q2 -48 2 -72 q0 -100 -15 -203q21 0 41 -4l135 628l307 64l-147 -692q21 4 47 4q30 143 97 298q62 147 116 216q66 89 145.5 133.5t155.5 44.5q31 0 59 -9t49 -26q46 -38 46 -102q0 -72 -43 -112q-35 -32 -90 -32q-88 0 -121 82q-54 -34 -95 -82t-76 -112q-30 -55 -57.5 -122t-64.5 -169 h29q139 0 201 -62q53 -54 53 -157q0 -56 -12.5 -114.5t-37.5 -149.5l-9 -30q-21 -75 -31.5 -120.5t-10.5 -83.5q0 -48 21.5 -84.5t58.5 -50.5q-123 -35 -203 -35q-89 0 -129 45q-30 33 -30 92q0 46 13.5 102.5t40.5 149.5t40.5 150t13.5 104q0 65 -27 101q-31 39 -96 39 q-30 0 -74 -7l-157 -741h-295l158 745q-17 3 -48 3q-83 4 -140 -49q-51 -48 -77 -140q-13 -43 -22.5 -92.5t-20.5 -118.5l-15 -102q-14 -98 -37 -159q-28 -73 -93 -105q-36 -17 -84 -17q-53 0 -106.5 7t-114.5 28z" />
<glyph unicode="&#x417;" horiz-adv-x="1075" d="M-20 244q0 83 48 134q47 50 119 50q43 0 68.5 -13t44.5 -40q-76 -45 -76 -148q0 -29 10.5 -54.5t30.5 -43.5q44 -41 121 -41q69 0 124 35.5t93 99.5q36 59 55 135t19 156q0 134 -62 198q-58 58 -174 58h-86l33 152h74q66 0 120.5 30.5t92.5 81.5q35 46 53.5 101.5 t18.5 103.5q0 75 -41.5 117.5t-118.5 42.5q-193 0 -314 -236l-47 21q21 85 66 152t108 112q59 43 131.5 64.5t151.5 21.5q185 0 281 -88q90 -84 90 -236q0 -121 -82 -216q-81 -91 -225 -140q128 -38 193 -117q71 -87 71 -211q0 -114 -42 -216.5t-121 -179.5 q-81 -79 -194.5 -123t-251.5 -44q-177 0 -277 70q-105 74 -105 211z" />
<glyph unicode="&#x418;" horiz-adv-x="1444" d="M25 1004q0 66 28.5 132t81.5 127q51 59 120 109t150 87q172 77 338 77q46 0 82 -4l-231 -1090l614 1090h295l-325 -1532h-295l223 1053l-606 -1053h-295l297 1393q-138 -58 -212.5 -172t-74.5 -277q0 -66 15 -102q4 -13 10 -23q4 -7 4 -14q-110 0 -163 44q-56 47 -56 155 z" />
<glyph unicode="&#x419;" horiz-adv-x="1444" d="M25 1004q0 66 28.5 132t81.5 127q51 59 120 109t150 87q172 77 338 77q46 0 82 -4l-231 -1090l614 1090h295l-325 -1532h-295l223 1053l-606 -1053h-295l297 1393q-138 -58 -212.5 -172t-74.5 -277q0 -66 15 -102q4 -13 10 -23q4 -7 4 -14q-110 0 -163 44q-56 47 -56 155 zM748 1815q0 67 37.5 108t99.5 41q60 0 93.5 -28.5t33.5 -82.5q0 -24 -7 -43q-13 -36 -42 -55q23 -8 81 -8q94 0 171 50q95 61 145 190h86q-67 -194 -182 -276q-102 -73 -250 -73q-127 0 -196.5 47t-69.5 130z" />
<glyph unicode="&#x41a;" horiz-adv-x="1300" d="M25 1004q0 66 28.5 132t81.5 127q51 59 120 109t150 87q172 77 338 77q46 0 82 -4l-131 -612q38 118 121 258q63 107 125 180q73 90 149.5 134t151.5 44q31 0 59 -9t49 -26q46 -38 46 -102q0 -72 -43 -112q-35 -32 -90 -32q-88 0 -121 82q-105 -63 -190 -179t-163 -288 q34 2 47 2h39q140 0 202 -62q52 -53 52 -157q0 -57 -13 -121.5t-37 -152.5q-27 -98 -38.5 -149.5t-11.5 -94.5q0 -48 21.5 -84.5t58.5 -50.5q-123 -35 -203 -35q-89 0 -129 45q-31 34 -31 92q0 46 14 106.5t41 156.5q27 97 40.5 160t13.5 116q0 65 -27 101q-30 38 -96 38 q-36 0 -67 -8l-164 -772h-295l297 1393q-138 -58 -212.5 -172t-74.5 -277q0 -66 15 -102q4 -13 10 -23q4 -7 4 -14q-110 0 -163 44q-56 47 -56 155z" />
<glyph unicode="&#x41b;" horiz-adv-x="1124" d="M-61 -16q0 75 26.5 182.5t74.5 232.5t114 257t143 257q80 130 169 242.5t180 195.5q201 185 376 185q38 0 81 -6q49 -7 81 -23l-322 -1507h-295l295 1391q-111 -59 -237 -251q-118 -182 -219 -422q-98 -235 -159 -463q-63 -232 -63 -374q0 -77 29 -114q-56 0 -98.5 5 t-79.5 24q-96 47 -96 188z" />
<glyph unicode="&#x41c;" horiz-adv-x="1667" d="M137 0l520 1407q-156 -52 -240.5 -169.5t-84.5 -291.5q0 -66 14 -104q3 -11 10 -22q4 -7 4 -15q-104 0 -159 42q-60 46 -60 144q0 64 26 130t74 128q47 60 109.5 112.5t135.5 91.5q73 40 151.5 61.5t155.5 21.5q76 0 155 -29l-47 -1079l451 1079h295l-215 -1507h-295 l131 920l-385 -920h-281l41 924l-342 -924h-164z" />
<glyph unicode="&#x41d;" horiz-adv-x="1362" d="M25 1004q0 66 28.5 132t81.5 127q51 59 120 109t150 87q172 77 338 77q46 0 82 -4l-131 -610h301l131 610h295l-325 -1532h-295l164 770h-301l-164 -770h-295l297 1393q-138 -58 -212.5 -172t-74.5 -277q0 -66 15 -102q4 -13 10 -23q4 -7 4 -14q-110 0 -163 44 q-56 47 -56 155z" />
<glyph unicode="&#x41e;" horiz-adv-x="1362" d="M33 977q0 141 118 273q116 128 301 205q195 81 406 81q256 0 377 -147q108 -132 108 -377q0 -103 -19 -217t-57 -224q-42 -120 -103.5 -224t-141.5 -181q-185 -178 -434 -178q-171 0 -264 93q-103 103 -103 318q0 85 16 189t46 208q32 111 79.5 212t106.5 177 q137 175 307 175q31 0 55.5 -3.5t51.5 -13.5q-89 -52 -176 -226q-80 -161 -131 -363q-52 -203 -52 -363q0 -108 28 -170q30 -67 91 -67q50 0 101.5 39t101.5 110q48 69 89 160.5t71 195.5q65 224 65 424q0 96 -11 161t-39 108q-30 46 -81 68t-131 22q-117 0 -224 -36.5 t-188 -104.5q-84 -71 -131 -169t-47 -217q0 -45 11 -78q3 -13 7 -19q3 -7 3 -13q-102 0 -154.5 40.5t-52.5 131.5z" />
<glyph unicode="&#x41f;" horiz-adv-x="1409" d="M25 1001q0 106 39.5 201.5t120.5 167.5q87 78 221 121t317 43q77 0 143 -6t169 -18q92 -12 170.5 -18.5t170.5 -6.5q68 0 130 12t108 31q-6 -257 -246 -260l-272 -1268h-295l278 1292q-75 11 -147 24q-105 17 -146 23l-286 -1339h-295l289 1348q-131 -21 -201 -112 q-78 -102 -78 -294q0 -66 15 -102q4 -13 10 -23q4 -7 4 -14q-110 0 -163 44q-56 47 -56 154z" />
<glyph unicode="&#x420;" horiz-adv-x="1174" d="M12 1004q0 67 29 132.5t82 126.5q50 58 119.5 108.5t150.5 87.5q170 77 338 77q237 0 368 -123q58 -55 86.5 -127t28.5 -153q0 -99 -40.5 -197t-116.5 -175q-80 -82 -190.5 -129.5t-243.5 -47.5h-11l-125 -584h-294l278 1303l303 40l-145 -684q97 7 185 90q80 75 127 190 q46 110 46 224q0 120 -59 197q-32 39 -81 60.5t-114 21.5q-124 0 -222.5 -34t-167.5 -98t-104.5 -157t-35.5 -209q0 -64 14 -102q4 -13 10 -23q4 -7 4 -14q-111 0 -162 44q-57 48 -57 155z" />
<glyph unicode="&#x421;" horiz-adv-x="1018" d="M39 471q0 155 36 323q42 195 120 349q91 179 221 279q148 114 338 114q153 0 243 -64q99 -70 99 -210q0 -88 -32 -135q-38 -54 -112 -54q-31 0 -60.5 11t-55.5 42q18 9 35 28.5t30 45.5q29 58 29 115q0 55 -28 87q-33 38 -97 38q-55 0 -108.5 -40.5t-102.5 -114.5 q-47 -71 -87 -166t-68 -202q-28 -108 -44 -220t-16 -214q0 -76 11.5 -133t37.5 -97q57 -89 197 -89q120 0 223 53.5t176 151.5l47 -21q-39 -98 -107.5 -171.5t-154.5 -121.5q-79 -44 -163 -66t-159 -22q-116 0 -199 27.5t-138 86.5q-56 60 -83.5 156.5t-27.5 233.5z" />
<glyph unicode="&#x422;" horiz-adv-x="985" d="M12 1001q0 106 39.5 201.5t120.5 167.5q87 78 221.5 121t317.5 43q105 0 201 -12q30 -3 78 -11q80 -15 154 -20q36 -4 91 -4q68 0 130 12t108 31q-5 -134 -68.5 -197t-187.5 -63q-67 0 -135 11t-183 34l-283 -1315h-294l290 1356h-24q-182 0 -274 -83 q-111 -100 -111 -331q0 -64 14 -102q4 -13 10 -23q4 -7 4 -14q-111 0 -162 44q-57 48 -57 154z" />
<glyph unicode="&#x423;" horiz-adv-x="1319" d="M25 1004q0 66 28.5 132t81.5 127q51 59 120 109t150 87q172 77 338 77q46 0 82 -4l179 -768l323 762h135l-512 -1211q-28 -63 -55.5 -113.5t-63.5 -94.5q-99 -117 -229 -117q-87 0 -135 43q-45 41 -45 106q0 69 36.5 107.5t104.5 38.5q53 0 86 -31.5t41 -89.5 q34 13 65.5 54t57.5 97l-293 1084q-146 -55 -225.5 -171t-79.5 -284q0 -66 15 -102q4 -13 10 -23q4 -7 4 -14q-110 0 -163 44q-56 47 -56 155z" />
<glyph unicode="&#x424;" horiz-adv-x="1610" d="M39 655q0 194 100 328q92 125 259 197q152 65 358 86l65 307q-202 -14 -291 -59q-48 -24 -71 -59t-23 -83q0 -40 17 -88q-22 -2 -34 -2q-67 0 -111 25q-62 34 -62 112q2 59 48 104t127 76q76 29 174.5 43.5t205.5 14.5q185 0 325 -31l-77 -358q242 -23 375 -148 q62 -58 93 -132.5t31 -160.5q0 -125 -48 -237t-136 -196q-90 -86 -215.5 -134.5t-274.5 -48.5h-49l-45 -211h-295l45 211q-247 4 -378 140q-57 60 -85 138t-28 166zM322 627q0 -61 15.5 -117t45.5 -100q30 -46 72.5 -72.5t95.5 -30.5l182 858q-207 -36 -309 -166t-102 -372z M846 307h12q93 0 171 46t135 127q55 77 84.5 171.5t29.5 190.5q0 140 -62.5 219.5t-187.5 103.5z" />
<glyph unicode="&#x425;" horiz-adv-x="1270" d="M12 1004q0 67 29 132.5t82 126.5q50 58 119.5 108.5t150.5 87.5q170 77 338 77q46 0 82 -4l88 -426l238 420h143l-344 -596l192 -930h-325l-109 512l-297 -512h-125l385 680l-151 719q-146 -55 -225.5 -170.5t-79.5 -284.5q0 -64 14 -102q4 -13 10 -23q4 -7 4 -14 q-111 0 -162 44q-57 48 -57 155z" />
<glyph unicode="&#x426;" horiz-adv-x="1417" d="M25 1004q0 66 28.5 132t81.5 127q51 59 120 109t150 87q172 77 338 77q46 0 82 -4l-293 -1382h19q61 0 125.5 -17t140.5 -47l309 1446h295l-336 -1567q57 -25 104 -37t93 -12t84 6q57 9 92 29q-14 -152 -71 -221q-62 -74 -187 -74q-69 0 -126 23t-117 66q-50 35 -108 83 q-123 102 -267 147q-81 25 -193 25q-61 0 -117 -2q-40 -3 -59 -8l-10 -2v2l2 4l297 1397q-138 -57 -212.5 -170.5t-74.5 -276.5q0 -66 15 -102q4 -13 10 -23q4 -7 4 -14q-110 0 -163 44q-56 47 -56 155z" />
<glyph unicode="&#x427;" horiz-adv-x="1423" d="M25 1004q0 66 28.5 132t81.5 127q51 59 120 109t150 87q172 77 338 77q46 0 82 -4l-92 -424q-28 -140 -28 -197q0 -79 48 -117q39 -32 105 -32q102 0 180 65l150 705h295l-326 -1532h-295l146 682q-79 -47 -152 -63.5t-151 -16.5q-129 0 -205 70q-84 76 -84 223 q0 116 22 213l64 285q-138 -58 -212.5 -172t-74.5 -277q0 -66 15 -102q4 -13 10 -23q4 -7 4 -14q-110 0 -163 44q-56 47 -56 155z" />
<glyph unicode="&#x428;" horiz-adv-x="1855" d="M25 1004q0 66 28.5 132t81.5 127q51 59 120 109t150 87q172 77 338 77q46 0 82 -4l-295 -1380h240l295 1380h295l-295 -1380h260l295 1380h295l-326 -1532h-1384l297 1393q-138 -58 -212.5 -172t-74.5 -277q0 -66 15 -102q4 -13 10 -23q4 -7 4 -14q-110 0 -163 44 q-56 47 -56 155z" />
<glyph unicode="&#x429;" horiz-adv-x="1913" d="M25 993q0 70 29 139t82 131q50 59 119.5 109.5t150.5 87.5q168 76 335 76q48 0 84 -4l-295 -1382q23 0 34 1t36 1q64 0 166 -21l299 1401h295l-311 -1462q152 -36 247 -62l324 1524h295l-338 -1587q143 -29 199 -29q58 0 101 8t77 27q-14 -151 -72 -221q-60 -74 -182 -74 q-69 0 -160 23t-213 66q-96 33 -228 83q-271 102 -480 147q-118 25 -230 25q-65 0 -119 -2q-40 -3 -59 -8l-8 -2v4q0 6 2 8l297 1393q-138 -57 -212.5 -170.5t-74.5 -276.5q0 -68 15 -104q3 -11 10 -22q4 -7 4 -15q-109 0 -164 43.5t-55 144.5z" />
<glyph unicode="&#x42a;" horiz-adv-x="1462" d="M25 1001q0 64 20 128t59 122q40 61 100 112.5t138 88.5q170 82 401 82q141 0 234 -16l-143 -662q59 20 108.5 28.5t101.5 8.5q172 0 263 -107q42 -51 63 -120t21 -152q0 -53 -11 -113.5t-33 -119.5q-23 -63 -59 -119.5t-83 -99.5q-107 -97 -253 -97q-68 0 -114.5 22 t-70.5 61q-23 38 -23 86q0 51 22 102q31 -40 64.5 -57t72.5 -17q54 0 93 32.5t65 88.5q23 50 34 112.5t11 124.5q0 118 -41 179q-49 73 -154 73q-55 0 -100 -22l-162 -750h-295l291 1354q-18 0 -26 1q-9 1 -27 1q-107 0 -168 -14q-86 -20 -135 -74q-33 -38 -52 -94t-19 -120 q0 -66 18.5 -131.5t58.5 -123.5q-32 -6 -62 -6q-73 0 -125 34q-39 26 -61 69.5t-22 104.5z" />
<glyph unicode="&#x42b;" horiz-adv-x="1862" d="M25 1004q0 66 28.5 132t81.5 127q51 59 120 109t150 87q172 77 338 77q46 0 82 -4l-143 -676q61 19 111 28t100 9q171 0 262 -107q42 -50 63 -119.5t21 -152.5q0 -53 -11 -113.5t-33 -119.5q-23 -63 -59 -119.5t-83 -99.5q-107 -97 -252 -97q-68 0 -115 22t-71 61 q-23 38 -23 86q0 51 22 102q31 -40 64.5 -57t73.5 -17q102 0 157 121q23 50 34 112.5t11 124.5q0 118 -41 179q-49 73 -153 73q-56 0 -101 -22l-159 -750h-295l297 1393q-138 -58 -212.5 -172t-74.5 -277q0 -66 15 -102q4 -13 10 -23q4 -7 4 -14q-110 0 -163 44 q-56 47 -56 155zM1300 0l326 1532h295l-326 -1532h-295z" />
<glyph unicode="&#x42c;" horiz-adv-x="1311" d="M25 1004q0 66 28.5 132t81.5 127q51 59 120 109t150 87q172 77 338 77q46 0 82 -4l-143 -676q61 19 111 28t100 9q171 0 262 -107q42 -50 63 -119.5t21 -152.5q0 -53 -11 -113.5t-33 -119.5q-23 -63 -59 -119.5t-83 -99.5q-107 -97 -252 -97q-68 0 -115 22t-71 61 q-23 38 -23 86q0 51 22 102q31 -40 64.5 -57t73.5 -17q102 0 157 121q23 50 34 112.5t11 124.5q0 118 -41 179q-49 73 -153 73q-56 0 -101 -22l-159 -750h-295l297 1393q-138 -58 -212.5 -172t-74.5 -277q0 -66 15 -102q4 -13 10 -23q4 -7 4 -14q-110 0 -163 44 q-56 47 -56 155z" />
<glyph unicode="&#x42d;" horiz-adv-x="1114" d="M-23 242q0 88 33 135q36 53 111 53q32 0 61.5 -10.5t55.5 -42.5q-28 -17 -51 -73t-23 -116q0 -53 31 -87q35 -38 104 -38q47 0 94 27.5t91 77.5q86 98 153 262q65 158 96 340h-434l33 152h420q4 43 4 98q0 165 -50 246q-58 94 -196 94q-112 0 -193 -61q-37 -27 -71.5 -67 t-73.5 -97l-47 20q40 99 100 172.5t133 121.5q68 44 142.5 65.5t146.5 21.5q116 0 199.5 -27.5t138.5 -86.5q56 -60 83.5 -156t27.5 -234q0 -159 -38 -322q-48 -199 -128 -349q-98 -179 -237 -279q-158 -115 -363 -115q-159 0 -251 64q-102 70 -102 211z" />
<glyph unicode="&#x42e;" horiz-adv-x="1937" d="M25 1004q0 66 28.5 132t81.5 127q51 59 120 109t150 87q172 77 338 77q46 0 82 -4l-131 -610h207q73 185 177 292q122 125 265 125q32 0 56.5 -3t50.5 -13q-45 -27 -89.5 -84.5t-83.5 -136.5q-78 -156 -127 -354q-24 -94 -37 -186.5t-13 -170.5q0 -108 28 -170 q30 -67 91 -67q50 0 102 37.5t101 106.5q47 66 88 154.5t72 190.5q65 219 65 420q0 174 -62 261q-69 97 -221 97q-101 0 -175 -35t-112 -96q-7 25 -7 41q0 36 20.5 70t58.5 60q49 35 117.5 55t146.5 20q260 0 383 -130t123 -394q0 -103 -19 -217t-57 -224 q-42 -120 -103.5 -224t-141.5 -181q-185 -178 -435 -178q-171 0 -263 93q-103 103 -103 318q0 80 13.5 176.5t39.5 194.5h-186l-164 -770h-295l297 1393q-138 -58 -212.5 -172t-74.5 -277q0 -66 15 -102q4 -13 10 -23q4 -7 4 -14q-110 0 -163 44q-56 47 -56 155z" />
<glyph unicode="&#x42f;" horiz-adv-x="1290" d="M-94 0q70 36 108 90q34 51 52 137l47 226q30 146 94 216q33 36 77 57.5t103 31.5q-84 46 -122 119t-38 174q0 97 44.5 185t129.5 154q90 69 218 107.5t288 38.5q107 0 200 -23.5t163 -66.5q70 -44 108.5 -104.5t38.5 -133.5q0 -106 -56 -154q-53 -44 -159 -44q1 3 7 18 q10 24 17 66q3 23 3 55q0 151 -82 220q-40 34 -100.5 49.5t-143.5 15.5q-110 0 -197 -30t-147 -84q-57 -51 -87 -120.5t-30 -146.5q0 -135 76 -214q32 -33 72 -50t80 -17h2l114 531l304 40l-287 -1343h-295l145 684q-75 -4 -121 -24q-35 -15 -77 -52q-29 -27 -49.5 -77.5 t-37.5 -121.5q-15 -65 -27 -129q-25 -137 -44 -193q-27 -74 -88 -105q-34 -17 -82 -17q-118 0 -221 35z" />
<glyph unicode="&#x430;" horiz-adv-x="1077" d="M-27 317q0 72 14.5 152t42.5 158q64 176 175 284q128 123 295 123q83 0 124.5 -28.5t41.5 -75.5v-15l22 109h295l-147 -696q-9 -30 -9 -66q0 -88 84 -88q56 0 102 57q39 48 64 136h86q-55 -156 -133 -247q-66 -75 -149 -108q-61 -24 -129 -24q-87 0 -138.5 47.5 t-62.5 140.5q-58 -82 -122 -128q-82 -60 -183 -60q-117 0 -189 73q-84 86 -84 256zM276 346q0 -102 38 -138q13 -14 29 -18t36 -4q23 0 48.5 12t49.5 34q54 52 72 135l98 462q0 10 -4.5 23.5t-12.5 25.5q-24 29 -67 29q-41 0 -79.5 -27t-72.5 -75q-60 -87 -99 -227 q-18 -62 -27 -122.5t-9 -109.5z" />
<glyph unicode="&#x431;" horiz-adv-x="881" d="M-27 338q0 118 37 230.5t108 201.5q75 93 179.5 146t234.5 53q14 0 19 -1t16 -1q-35 43 -85 91q-50 47 -84.5 86.5t-56.5 78.5q-24 42 -24 92q0 78 53 114.5t169 36.5h311h92q36 0 58.5 8.5t34.5 29.5q11 17 22 61h90q-25 -121 -52.5 -193t-65.5 -111t-91 -54t-137 -15 h-197q-13 0 -19.5 -4.5t-6.5 -20.5q0 -9 16 -28l14 -17q9 -12 33 -43.5t46 -63.5q63 -92 92 -211q16 -63 16 -138t-15 -154t-43 -154q-29 -76 -72 -142t-97 -116q-118 -108 -267 -108q-158 0 -241 83q-87 87 -87 263zM272 328q0 -87 25 -121q12 -17 31.5 -24t50.5 -7 q84 0 147 116q48 91 77 234q11 56 16.5 106t5.5 77q0 77 -20 108q-18 27 -58 27q-46 0 -86 -29.5t-72 -80.5q-54 -86 -89 -225q-14 -53 -21 -102t-7 -79z" />
<glyph unicode="&#x432;" horiz-adv-x="920" d="M-29 360q0 55 12.5 135.5t35.5 173.5q50 200 133 391q92 210 202 336q124 142 252 142q107 0 164 -64q61 -70 61 -217q0 -116 -57 -263q-43 -111 -110 -228q43 -21 77 -61q89 0 202 42q101 36 173 87l19 -56q-57 -60 -147 -103.5t-200 -62.5q11 -38 11 -102 q0 -102 -33 -195t-96 -165q-65 -75 -156.5 -116.5t-202.5 -41.5q-168 0 -258 104q-82 95 -82 264zM276 354q0 -83 29 -128q31 -50 96 -50q48 0 88 25t68 69q27 41 41 91.5t14 101.5q0 76 -18 112q-20 -7 -33.5 -9.5t-40.5 -2.5q-49 0 -77.5 27t-28.5 74q0 61 41 92 q33 25 102 30q55 99 99 233q44 137 44 247q0 62 -15.5 87t-51.5 25q-32 0 -65 -34t-65 -95q-58 -113 -114 -301q-48 -159 -82 -342q-31 -164 -31 -252z" />
<glyph unicode="&#x433;" horiz-adv-x="768" d="M-43 219q0 103 68 181q27 32 63.5 60t85.5 58q62 38 92.5 58.5t57.5 45.5q32 31 49.5 64t17.5 74q0 46 -23.5 71t-70.5 25q-67 0 -120.5 -51t-100.5 -162h-99q67 191 164 287q112 112 283 112q56 0 105.5 -13.5t87.5 -40.5q40 -29 61.5 -73.5t21.5 -103.5 q0 -79 -29.5 -138.5t-82.5 -108.5q-47 -43 -104 -78q-69 -42 -112 -71.5t-72 -62.5q-32 -37 -32 -84q0 -57 38 -82.5t108 -25.5q94 0 173 46q86 48 181 161h70q-110 -176 -233 -267q-149 -112 -331 -112q-149 0 -231 55q-86 57 -86 176z" />
<glyph unicode="&#x434;" horiz-adv-x="1038" d="M-27 317q0 72 14.5 152t42.5 158q64 176 175 284q128 123 295 123q83 0 124.5 -28.5t41.5 -75.5v-12l22 106h295l-203 -950q97 32 155 96q63 69 103 197h86q-55 -182 -164 -281q-80 -72 -198 -102l-31 -148q-39 -196 -156 -284q-85 -64 -213 -64q-48 0 -89.5 12.5 t-71.5 37.5q-32 25 -50 62.5t-18 86.5q0 116 109 199q82 61 225 106l25 108q-105 -112 -246 -112q-117 0 -189 73q-84 86 -84 256zM246 -285q0 -27 17 -45q19 -22 52 -22q32 0 66 45q34 44 53 137l12 59q-93 -35 -139 -71q-61 -46 -61 -103zM276 346q0 -102 38 -138 q13 -14 29 -18t36 -4q44 0 93 41q53 46 71 119l104 485q0 10 -4.5 23t-12.5 24q-24 29 -67 29q-41 0 -79.5 -27t-72.5 -75q-60 -87 -99 -227q-18 -62 -27 -122.5t-9 -109.5z" />
<glyph unicode="&#x435;" horiz-adv-x="786" d="M-27 313q0 63 12.5 140t37.5 154q28 86 71.5 163t101.5 136q134 136 330 136q125 0 182 -60q44 -47 44 -136q0 -87 -38 -163.5t-105 -135.5q-67 -58 -152 -92.5t-176 -40.5q-5 -52 -5 -82q0 -100 38 -138q33 -34 110 -34q111 0 203 60q39 25 75 59.5t84 87.5h70 q-97 -164 -223 -261q-155 -118 -340 -118q-151 0 -233 76q-87 81 -87 249zM297 512q57 4 111 33t96 76q42 48 66 107.5t24 121.5q0 41 -11.5 62.5t-39.5 21.5q-37 0 -74.5 -36t-72.5 -99q-32 -59 -58 -134t-41 -153z" />
<glyph unicode="&#x436;" horiz-adv-x="1806" d="M-76 205q0 80 37 129q16 21 38 32t46 11q45 0 74 -29q-27 -70 -27 -135q0 -59 25 -91q10 -13 23 -19.5t26 -6.5q56 0 109 97q50 90 82 226q32 138 32 257q0 111 -31 163t-94 52q-57 0 -91.5 -37t-66.5 -117h-106q45 151 119 223q85 82 221 82q69 0 125 -23t95 -65 q39 -43 59 -103t20 -134q0 -50 -6 -103h123l86 410h274l-86 -410h115q54 183 151 295q113 133 269 133q114 0 168 -59q43 -48 43 -129q0 -72 -29.5 -110.5t-75.5 -38.5q-37 0 -72 24q21 66 21 121q0 39 -12 61.5t-35 22.5q-26 0 -53 -25.5t-52 -70.5q-51 -93 -82 -226 q-34 -139 -34 -258q0 -108 40 -161.5t111 -53.5q37 0 78.5 14t83.5 42q93 63 158 172h69q-33 -72 -84 -139.5t-114 -120.5q-66 -56 -140.5 -87.5t-152.5 -31.5q-69 0 -124.5 23t-94.5 66q-39 42 -59.5 102t-20.5 134q0 53 3 94.5t13 84.5h-117l-102 -492h-274l104 492h-115 q-19 -95 -55.5 -184t-88.5 -158q-58 -76 -133.5 -119t-168.5 -43q-128 0 -191 68q-53 56 -53 149z" />
<glyph unicode="&#x437;" horiz-adv-x="1020" d="M0 367q29 113 52 191.5t51 146.5q65 162 162 244q112 93 284 93q73 0 133 -21.5t102 -62.5q88 -88 88 -241q0 -121 -64 -233q-51 -90 -134 -155q-35 -27 -66.5 -44t-52.5 -21q50 -17 98 -70q52 -59 70 -135q57 16 100.5 39t78.5 57q36 35 64.5 86.5t53.5 125.5h86 q-54 -185 -170 -287q-84 -73 -205 -103q-2 -115 -30.5 -206t-79.5 -154t-121.5 -96t-155.5 -33q-97 0 -161 50q-32 25 -50 62.5t-18 86.5q0 112 103 195q79 62 218 106q-6 217 -147 217h-64l27 123h59q54 0 101 27t81 76q33 49 51.5 113t18.5 136q0 75 -23 118 q-31 58 -102 58q-113 0 -196 -112q-91 -122 -156 -377h-86zM227 -285q0 -30 18 -48.5t52 -18.5q21 0 43 19t40 53q37 69 50 169q-95 -34 -141 -69q-62 -49 -62 -105z" />
<glyph unicode="&#x438;" d="M-16 233q0 58 16 134l139 657h295l-147 -696q-6 -31 -6 -58q0 -84 61 -84q56 0 101 51q36 43 63 130l139 657h295l-147 -696q-9 -30 -9 -66q0 -42 20 -59t64 -17q57 0 102 51q40 45 64 130h86q-55 -156 -133 -247q-66 -75 -149 -108q-61 -24 -129 -24q-88 0 -140 49 t-63 145q-70 -112 -158 -160q-63 -34 -145 -34q-98 0 -155 58q-64 64 -64 187z" />
<glyph unicode="&#x439;" d="M-16 233q0 58 16 134l139 657h295l-147 -696q-6 -31 -6 -58q0 -84 61 -84q56 0 101 51q36 43 63 130l139 657h295l-147 -696q-9 -30 -9 -66q0 -42 20 -59t64 -17q57 0 102 51q40 45 64 130h86q-55 -156 -133 -247q-66 -75 -149 -108q-61 -24 -129 -24q-88 0 -140 49 t-63 145q-70 -112 -158 -160q-63 -34 -145 -34q-98 0 -155 58q-64 64 -64 187zM266 1300q0 67 37 108.5t100 41.5q60 0 93.5 -28.5t33.5 -82.5q0 -24 -7 -43q-13 -36 -42 -55q24 -8 82 -8q98 0 174 50q91 59 142 190h86q-67 -193 -179 -276q-99 -73 -254 -73 q-127 0 -196.5 47t-69.5 129z" />
<glyph unicode="&#x43a;" horiz-adv-x="1026" d="M-78 0l219 1024h295l-88 -406q66 66 128 133l15 17q119 128 162 171q71 71 134 92q35 11 73 11q69 0 105 -37.5t36 -97.5q0 -63 -33.5 -98t-95.5 -35q-57 0 -87 35q-27 30 -25 70q-32 -19 -60.5 -44.5t-62.5 -60.5l-20 -22q-14 -14 -38 -42q-25 -29 -61 -65q35 8 86 8 q106 0 153 -49q42 -43 42 -141q0 -33 -12 -97q-5 -25 -9 -52.5t-4 -51.5q0 -76 82 -76q31 0 53.5 10.5t41.5 33.5q18 21 35 53t40 84h86q-129 -379 -373 -379q-122 0 -184.5 60t-62.5 167q0 35 12 105q2 16 4 22q2 20 4 27q4 20 4 41q0 98 -78 98q-26 0 -56 -18l-33 -24 l-42 -34l-90 -432h-295z" />
<glyph unicode="&#x43b;" horiz-adv-x="1143" d="M-78 219q0 73 34 118.5t93 45.5q48 0 77.5 -29.5t29.5 -77.5q0 -44 -20.5 -69.5t-50.5 -25.5q-7 0 -11 1q2 -28 17 -43q20 -22 63 -22q48 0 79 31t53 90q21 60 35 128q10 57 24 117l7 33q32 157 71.5 257t89.5 157q45 53 101.5 73.5t130.5 20.5h302l-109 -508l-36 -158 q-13 -58 -13 -86q0 -86 82 -86q30 0 53 10.5t43 33.5q18 21 35.5 53t40.5 84h86q-129 -379 -381 -379q-117 0 -183 66q-29 29 -44 68.5t-15 82.5q0 86 45 278l90 406q-54 0 -92 -22t-67 -69q-28 -45 -51 -117t-48 -185l-4 -20q-31 -145 -52.5 -223t-51.5 -133 q-37 -67 -91.5 -99.5t-136.5 -32.5q-112 0 -172 73q-26 31 -39.5 72.5t-13.5 85.5z" />
<glyph unicode="&#x43c;" horiz-adv-x="1583" d="M-78 223q0 72 33.5 113t93.5 41q48 0 77.5 -29.5t29.5 -77.5q0 -44 -20.5 -69.5t-50.5 -25.5q-7 0 -11 1q-2 -30 14 -50q21 -28 66 -28q52 0 87 33.5t58 96.5q21 60 36 134q13 71 30 154l108 508h287l43 -786l381 786h303l-109 -508l-36 -158q-13 -58 -13 -86 q0 -86 82 -86q31 0 54 10.5t43 33.5q18 21 34.5 52t40.5 85h86q-129 -379 -381 -379q-118 0 -182 66q-29 29 -44 68.5t-15 82.5q0 87 43 272l32 146l-303 -623h-287l-36 625l-27 -129q-29 -145 -52 -231t-54 -145q-35 -66 -86.5 -99t-129.5 -33q-55 0 -98 20.5t-72 56.5 q-27 33 -41 74.5t-14 83.5z" />
<glyph unicode="&#x43d;" horiz-adv-x="1038" d="M-78 0l217 1024h295l-88 -410h229l93 410h274l-108 -508l-36 -158q-14 -62 -14 -86q0 -86 82 -86q31 0 54 10.5t43 33.5q18 21 34.5 52t40.5 85h86q-129 -379 -381 -379q-118 0 -182 66q-29 29 -44 68.5t-15 82.5q0 38 11.5 103t35.5 184h-227l-105 -492h-295z" />
<glyph unicode="&#x43e;" horiz-adv-x="899" d="M-29 315q0 63 13 139.5t40 154.5q62 186 177 297q139 136 331 136q263 0 263 -327v-2q6 -2 10 -2h12q68 0 161 38q82 34 155 85l18 -56q-60 -63 -154.5 -107t-208.5 -63q-12 -139 -54 -253.5t-108 -196.5q-65 -80 -149 -123t-178 -43q-152 0 -235 74q-93 82 -93 249z M276 342q0 -51 5.5 -83t18.5 -50q12 -18 31 -25.5t50 -7.5q36 0 73.5 32.5t70.5 90.5t57 136t36 167q-30 8 -42.5 30t-12.5 56q0 42 17 70t47 41q-4 65 -21 93q-9 14 -22.5 20t-34.5 6q-69 0 -135 -104q-61 -94 -100 -232q-38 -135 -38 -240z" />
<glyph unicode="&#x43f;" d="M-78 0l217 1024h295l-22 -106q60 67 129 94q51 20 110 20q104 0 164 -54q64 -59 64 -177q0 -71 -26 -185q-7 -33 -23 -99q-29 -111 -42 -177q-8 -42 -8 -68q0 -41 18.5 -63.5t63.5 -22.5q61 0 103 50q32 38 69 131h86q-76 -225 -192 -315q-82 -64 -189 -64 q-127 0 -188 72q-53 62 -53 159q0 46 11.5 107t34.5 157q23 98 34.5 156.5t11.5 101.5q0 105 -74 105q-52 0 -96 -55q-37 -47 -64 -134l-139 -657h-295z" />
<glyph unicode="&#x440;" horiz-adv-x="989" d="M-186 -512l342 1612h295l-33 -154q104 88 239 88q115 0 178 -70q72 -82 72 -253q0 -165 -42 -310q-53 -185 -154 -287q-124 -126 -308 -126q-71 0 -117 22q-35 16 -57 51l-106 -499zM262 213q7 -20 26.5 -33.5t51.5 -13.5q99 0 170 101q56 79 90 222q27 115 27 228 q0 101 -37 144q-24 26 -66 26q-37 0 -75 -26t-66 -75z" />
<glyph unicode="&#x441;" horiz-adv-x="786" d="M-27 313q0 63 12.5 140.5t38.5 154.5q61 187 173 298q138 136 327 136q123 0 182 -59q46 -47 46 -129q0 -72 -32 -112q-30 -37 -77 -37q-34 0 -72 24q25 65 25 121q0 39 -14.5 61.5t-42.5 22.5q-60 0 -125 -106q-59 -94 -98 -239q-40 -142 -40 -257q0 -100 38 -138 q33 -34 110 -34q111 0 203 60q39 25 75 59.5t84 87.5h70q-97 -164 -223 -261q-155 -118 -340 -118q-151 0 -233 76q-87 81 -87 249z" />
<glyph unicode="&#x442;" horiz-adv-x="1540" d="M-78 0l217 1024h295l-22 -106q60 67 131 95q56 21 119 21q86 0 137 -40q57 -45 73 -136q66 102 152 144q61 30 133 30q103 0 163 -54q64 -59 64 -177q0 -67 -25 -185q-10 -49 -24 -99q-25 -96 -41 -177q-8 -42 -8 -68q0 -41 18.5 -63.5t63.5 -22.5q61 0 103 50 q32 38 69 131h86q-76 -225 -192 -315q-82 -64 -189 -64q-127 0 -188 72q-53 62 -53 159q0 46 11.5 107t34.5 157q23 98 34.5 156.5t11.5 101.5q0 105 -74 105q-52 0 -96 -55q-37 -47 -64 -134l-139 -657h-295l150 707q6 24 6 51q0 41 -13 63q-17 27 -49 27q-58 0 -101 -56 q-38 -48 -65 -135l-139 -657h-295z" />
<glyph unicode="&#x443;" horiz-adv-x="995" d="M-16 233q0 58 16 134l139 657h295l-147 -696q-6 -25 -6 -52q0 -39 13 -62q15 -28 48 -28q54 0 97 48q37 41 63 120l143 670h295l-203 -950q97 32 155 96q63 69 103 197h86q-55 -182 -164 -281q-80 -72 -198 -102l-31 -148q-39 -196 -156 -284q-85 -64 -213 -64 q-48 0 -89.5 12.5t-71.5 37.5q-32 25 -50 62.5t-18 86.5q0 116 109 199q82 61 225 106l25 110q-60 -66 -130 -93q-54 -21 -116 -21q-98 0 -155 58q-64 64 -64 187zM203 -285q0 -27 17 -45q19 -22 52 -22q31 0 66 45q34 44 53 137l12 59q-93 -35 -139 -71q-61 -46 -61 -103z " />
<glyph unicode="&#x444;" horiz-adv-x="1511" d="M-29 317q0 232 129 461q66 117 165 184q106 72 233 72q168 0 168 -112l102 471l283 41l-111 -488q100 88 240 88q250 0 250 -323q0 -196 -51 -352q-58 -173 -165 -266q-123 -105 -296 -105q-124 0 -166 73l-107 -499l-289 -74l136 612q-105 -112 -238 -112 q-134 0 -206 79q-77 85 -77 250zM274 345q0 -74 17 -108q13 -27 28.5 -38.5t47.5 -11.5q30 0 61 15t59 45q29 29 50 85l108 506q-12 69 -90 69q-64 0 -117.5 -66t-88.5 -146q-25 -58 -45.5 -137.5t-26.5 -144.5q-3 -37 -3 -68zM784 213q17 -47 78 -47q90 0 158 86 q62 78 96 209q33 127 33 256q0 170 -102 170q-83 0 -142 -101z" />
<glyph unicode="&#x445;" horiz-adv-x="1069" d="M0 367q40 177 94 308q65 162 156 254q105 105 233 105q110 0 169 -82q43 -61 53 -161l18 -156q87 97 130 167.5t48 127.5q-20 -4 -35 -4q-50 0 -74 34q-22 28 -22 80q0 49 42 78q36 23 97 23q27 0 49 -16t37 -43q14 -27 21.5 -60.5t7.5 -67.5q0 -47 -17 -94.5t-53 -99.5 q-33 -48 -82.5 -105t-132.5 -147l19 -143q12 -98 43 -140q28 -39 84 -39q59 0 110 51q49 49 74 130h86q-74 -214 -205 -309q-97 -70 -213 -70q-94 0 -155 84q-67 92 -95 272l-282 -344h-148l414 467l-33 229q-16 99 -34 137q-16 33 -44 33q-31 0 -66.5 -31t-72.5 -92 q-85 -141 -135 -376h-86z" />
<glyph unicode="&#x446;" horiz-adv-x="1096" d="M-16 233q0 58 16 134l139 657h295l-147 -696q-6 -31 -6 -58q0 -84 61 -84q56 0 101 51q36 43 63 130l139 657h295l-147 -696q-9 -30 -9 -66q0 -42 20 -59t64 -17h105q-22 -245 -94 -385q-59 -114 -149 -157q-61 -29 -148 -29h-142h-90q-37 0 -60 -8.5t-35 -28.5 q-13 -20 -22 -61h-90q26 121 53 193t65 111q37 39 90 53.5t138 14.5h160q58 0 87 3.5t53 18.5q28 18 47 55.5t34 105.5q-50 -52 -93 -70q-19 -8 -40 -11t-49 -3q-74 0 -122.5 49.5t-59.5 144.5q-70 -112 -158 -160q-63 -34 -145 -34q-98 0 -155 58q-64 64 -64 187z" />
<glyph unicode="&#x447;" d="M51 549q0 51 17 133l71 342h295l-80 -381q-6 -30 -6 -57q0 -84 62 -84q58 0 103 51q43 49 60 129l72 342h295l-147 -696q-9 -30 -9 -66q0 -42 20 -59t64 -17q57 0 102 51q40 45 64 130h86q-55 -156 -133 -247q-66 -75 -149 -108q-61 -24 -129 -24q-98 0 -156 58 q-64 64 -64 187q0 54 17 134l10 51q-61 -66 -129 -93q-53 -22 -117 -22q-98 0 -155 58q-64 64 -64 188z" />
<glyph unicode="&#x448;" horiz-adv-x="1540" d="M-16 233q0 58 16 134l139 657h295l-147 -696q-6 -31 -6 -58q0 -84 61 -84q56 0 101 51q36 43 63 130l139 657h295l-147 -696q-7 -27 -7 -58q0 -84 62 -84q56 0 101 51q36 43 63 130l139 657h295l-148 -696q-8 -26 -8 -66q0 -42 20 -59t64 -17q57 0 102 51q38 45 64 130 h86q-76 -221 -208 -315q-92 -64 -204 -64q-88 0 -139.5 49t-62.5 145q-70 -112 -158 -160q-63 -34 -145 -34q-88 0 -140 49t-63 145q-70 -112 -158 -160q-63 -34 -145 -34q-98 0 -155 58q-64 64 -64 187z" />
<glyph unicode="&#x449;" horiz-adv-x="1602" d="M-16 233q0 58 16 134l139 657h295l-147 -696q-6 -31 -6 -58q0 -84 61 -84q56 0 101 51q36 43 63 130l139 657h295l-147 -696q-7 -27 -7 -58q0 -84 62 -84q56 0 101 51q36 43 63 130l139 657h295l-148 -696q-8 -26 -8 -66q0 -42 20 -59t64 -17h105q-22 -245 -94 -385 q-59 -114 -149 -157q-61 -29 -149 -29h-141h-90q-37 0 -60 -8.5t-35 -28.5q-13 -20 -22 -61h-90q26 121 53 193t65 111q37 39 90 53.5t138 14.5h160q58 0 87 3.5t53 18.5q28 18 47 55.5t34 105.5q-29 -29 -51 -45.5t-43 -24.5q-19 -8 -39.5 -11t-48.5 -3q-74 0 -122.5 49.5 t-59.5 144.5q-70 -112 -158 -160q-63 -34 -145 -34q-88 0 -140 49t-63 145q-70 -112 -158 -160q-63 -34 -145 -34q-98 0 -155 58q-64 64 -64 187z" />
<glyph unicode="&#x44a;" horiz-adv-x="918" d="M-35 817q0 39 16.5 76.5t47.5 66.5q31 30 75 47t99 17h368l-61 -98q-41 -70 -68 -122q-34 -65 -59 -134q98 63 213 63q47 0 90.5 -15t75.5 -45q35 -33 54.5 -82.5t19.5 -113.5q0 -109 -43 -200t-119 -156q-75 -64 -172 -98.5t-205 -34.5q-138 0 -219 65q-90 69 -90 199 q0 106 60 231q51 107 142 226q69 91 170 204h-100q-55 0 -80 -5q-33 -7 -33 -27q0 -5 4 -6q10 -2 16 -14q3 -7 3 -25q0 -54 -34 -83q-32 -26 -77 -26q-36 0 -64 23q-30 25 -30 67zM279 266q0 -104 81 -104q43 0 81 29t68 78q27 45 42.5 99.5t15.5 100.5q0 64 -32 93 q-25 20 -68 20q-71 0 -121 -35q-37 -96 -54 -168q-13 -57 -13 -113z" />
<glyph unicode="&#x44b;" horiz-adv-x="1341" d="M-12 250q0 67 14 117l135 657h283l-152 -721q-6 -14 -6 -34.5v-22.5q0 -84 92 -84q41 0 81 26.5t71 72.5q31 47 49 109.5t18 131.5q0 49 -30 78q-26 -19 -60 -19q-16 0 -32 5.5t-28 15.5q-30 25 -30 67q0 44 37 71q32 23 78 23q47 0 84 -12q69 31 130 64t136 78 q10 6 23.5 14t29.5 18q114 70 207 119h127l-108 -508l-36 -158q-14 -62 -14 -86q0 -86 82 -86q31 0 54 10.5t43 33.5q18 21 34.5 52t40.5 85h86q-129 -379 -378 -379q-118 0 -184 68q-29 29 -43.5 69t-14.5 86q0 11 1 19q3 28 5 36q7 51 30 164q21 107 77 358 q-105 -66 -230 -133q49 -76 49 -204q0 -44 -12 -95.5t-35 -100.5q-56 -117 -149 -185q-114 -82 -262 -82q-140 0 -216.5 69t-76.5 193z" />
<glyph unicode="&#x44c;" horiz-adv-x="918" d="M-12 250q0 67 14 117l139 657h295l-69 -332q64 27 117 35q38 6 87 6q61 0 110.5 -18t83.5 -53t52.5 -86.5t18.5 -114.5q0 -44 -13.5 -96t-39.5 -103q-62 -118 -174 -189q-131 -85 -314 -85q-71 0 -128 18t-96 52q-40 33 -61.5 82t-21.5 110zM279 246q0 -84 88 -84 q38 0 74.5 26.5t65.5 71.5q27 43 43.5 93.5t16.5 95.5q0 62 -28 97.5t-82 35.5q-23 0 -62 -12q-42 -12 -59 -25l-51 -242q-6 -14 -6 -34.5v-22.5z" />
<glyph unicode="&#x44d;" horiz-adv-x="877" d="M-76 205q0 82 36 129q34 43 83 43q21 0 39.5 -6t36.5 -23q-27 -70 -27 -139q0 -113 113 -113q43 0 83.5 32t75.5 89q33 54 60.5 125.5t44.5 149.5h-254l27 122h245q5 45 5 78q0 101 -41 141q-20 20 -51.5 28.5t-75.5 8.5q-61 0 -105 -32.5t-82 -100.5h-104 q59 146 151 221q103 84 273 84q159 0 246 -81q92 -86 92 -254q0 -59 -14.5 -134.5t-43.5 -152.5q-32 -85 -80 -161.5t-110 -134.5q-148 -136 -344 -136q-139 0 -209 57.5t-70 159.5z" />
<glyph unicode="&#x44e;" horiz-adv-x="1382" d="M-78 0l217 1024h295l-86 -410h160q29 85 73.5 161t104.5 133q139 134 330 134q262 0 262 -327v-2q6 -2 10 -2h12q68 0 161 38q82 34 155 85l18 -56q-60 -63 -154.5 -107t-207.5 -63q-12 -139 -54 -253.5t-109 -196.5q-65 -80 -149 -123t-178 -43q-151 0 -234 74 q-93 82 -93 249q0 78 18 177h-154l-102 -492h-295zM760 342q0 -98 23 -133q12 -18 31 -25.5t50 -7.5q37 0 74 32t71 91q33 58 57 136t36 167q-30 8 -42.5 30t-12.5 56q0 42 16.5 70t46.5 41q-4 65 -21 93q-9 14 -22.5 20t-34.5 6q-35 0 -69.5 -27.5t-65.5 -76.5 q-60 -95 -99 -232q-38 -135 -38 -240z" />
<glyph unicode="&#x44f;" horiz-adv-x="1079" d="M-78 219q0 73 34 118.5t93 45.5q48 0 77.5 -29.5t29.5 -77.5q0 -44 -20.5 -69.5t-50.5 -25.5q-7 0 -11 1q2 -27 18 -43q20 -22 62 -22q35 0 61 21.5t46 63.5q18 39 34 94.5t33 135.5q-90 19 -140 76q-55 63 -55 162q0 158 117 249q136 105 422 105h311l-109 -508 l-36 -158q-13 -58 -13 -86q0 -86 82 -86q31 0 54 10.5t43 33.5q18 21 34.5 52t40.5 85h86q-129 -379 -381 -379q-118 0 -182 66q-29 29 -44 68.5t-15 82.5q0 29 6 70q6 39 31 159q-55 -12 -115 -12q-28 -118 -52.5 -194t-56.5 -127q-35 -57 -84.5 -85t-119.5 -28 q-109 0 -172 70q-28 31 -43 73t-15 88zM391 676q0 -86 43 -124q37 -34 105 -34h33h5q7 0 21 4l86 391h-49q-119 0 -182 -66q-31 -31 -46.5 -75t-15.5 -96z" />
<glyph unicode="&#x451;" horiz-adv-x="786" d="M-27 313q0 63 12.5 140t37.5 154q28 86 71.5 163t101.5 136q134 136 330 136q125 0 182 -60q44 -47 44 -136q0 -87 -38 -163.5t-105 -135.5q-67 -58 -152 -92.5t-176 -40.5q-5 -52 -5 -82q0 -100 38 -138q33 -34 110 -34q111 0 203 60q39 25 75 59.5t84 87.5h70 q-97 -164 -223 -261q-155 -118 -340 -118q-151 0 -233 76q-87 81 -87 249zM244 1298q0 24 9.5 47t26.5 41q35 37 89 37q49 0 88 -37q17 -17 27 -40t10 -48q0 -53 -37 -88q-39 -36 -88 -36q-53 0 -89 36t-36 88zM297 512q57 4 111 33t96 76q42 48 66 107.5t24 121.5 q0 41 -11.5 62.5t-39.5 21.5q-37 0 -74.5 -36t-72.5 -99q-32 -59 -58 -134t-41 -153zM612 1298q0 25 9.5 48t26.5 40q37 37 89 37q25 0 48 -10t40 -27t27 -40t10 -48q0 -53 -37 -88q-18 -17 -41 -26.5t-47 -9.5q-51 0 -89 36q-36 34 -36 88z" />
<glyph unicode="&#x452;" horiz-adv-x="1006" d="M-78 0l217 1024h-110l22 111h113l55 258l303 41l-63 -299h256l-25 -111h-256l-53 -248q59 65 130 95q51 20 112 20q105 0 163 -54q64 -61 64 -178q0 -31 -7 -72q-10 -58 -34 -165l-33 -146l-45 -202q103 34 164 96q70 72 111 197h86q-56 -186 -171 -282 q-87 -71 -212 -101l-33 -148q-45 -198 -147 -284q-43 -36 -92.5 -50t-106.5 -14q-97 0 -161 50q-33 25 -51 62.5t-18 86.5q0 122 111 207q83 65 225 104q67 299 84 381l22 104l12 62q7 43 7 55q0 105 -74 105q-26 0 -52 -14.5t-47 -40.5q-45 -52 -62 -134l-109 -516h-295z M213 -285q0 -26 18 -45q19 -22 52 -22q32 0 65 45q34 44 53 137l7 36q2 13 8 30q-96 -37 -141 -72q-62 -49 -62 -109z" />
<glyph unicode="&#x453;" horiz-adv-x="768" d="M-43 219q0 103 68 181q27 32 63.5 60t85.5 58q62 38 92.5 58.5t57.5 45.5q32 31 49.5 64t17.5 74q0 46 -23.5 71t-70.5 25q-67 0 -120.5 -51t-100.5 -162h-99q67 191 164 287q112 112 283 112q56 0 105.5 -13.5t87.5 -40.5q40 -29 61.5 -73.5t21.5 -103.5 q0 -79 -29.5 -138.5t-82.5 -108.5q-47 -43 -104 -78q-69 -42 -112 -71.5t-72 -62.5q-32 -37 -32 -84q0 -57 38 -82.5t108 -25.5q94 0 173 46q86 48 181 161h70q-110 -176 -233 -267q-149 -112 -331 -112q-149 0 -231 55q-86 57 -86 176zM399 1149l187 387h215l-248 -387 h-154z" />
<glyph unicode="&#x454;" horiz-adv-x="786" d="M-27 313q0 63 12.5 140.5t38.5 154.5q61 187 173 298q138 136 327 136q123 0 182 -59q46 -47 46 -129q0 -72 -32 -112q-30 -37 -77 -37q-34 0 -72 24q25 65 25 121q0 39 -14.5 61.5t-42.5 22.5q-30 0 -60.5 -25.5t-59.5 -71.5q-57 -92 -95 -223h243l-26 -122h-248 q-17 -91 -17 -160q0 -100 38 -138q33 -34 110 -34q111 0 203 60q39 25 75 59.5t84 87.5h70q-97 -164 -223 -261q-155 -118 -340 -118q-151 0 -233 76q-87 81 -87 249z" />
<glyph unicode="&#x455;" horiz-adv-x="782" d="M-66 250q0 67 34 121q30 48 75 69q80 142 139 288t113 319l303 40q12 -260 22 -399q10 -143 17 -210q6 -78 6 -136q0 -52 -8 -78q92 54 147 103h86q-73 -85 -150.5 -146t-162.5 -110q-61 -64 -153 -95q-80 -28 -169 -28q-74 0 -131 22.5t-96 62.5q-36 37 -54 82.5 t-18 94.5zM43 293q0 -74 29 -108.5t96 -34.5q77 0 123 42q55 50 55 148q0 41 -5 103l-5 61q-9 79 -18 183l-11 138q-29 -93 -69 -184.5t-97 -202.5q47 -26 47 -71q0 -40 -24 -69q-26 -32 -66 -32q-20 0 -33.5 5.5t-21.5 21.5z" />
<glyph unicode="&#x456;" horiz-adv-x="547" d="M-16 233q0 58 16 134l139 657h295l-147 -696q-8 -26 -8 -66q0 -42 19.5 -59t63.5 -17q30 0 58.5 13.5t52.5 37.5q49 49 74 130h86q-55 -155 -138 -247q-70 -75 -158 -108q-64 -24 -134 -24q-98 0 -155 58q-64 64 -64 187zM180 1296q0 33 12.5 63t34.5 53t52 35.5t63 12.5 t63 -12.5t53 -35.5t35.5 -53t12.5 -63t-12.5 -63t-35.5 -51q-23 -22 -53 -34.5t-63 -12.5t-63 12.5t-52 34.5q-22 21 -34.5 51t-12.5 63z" />
<glyph unicode="&#x457;" horiz-adv-x="547" d="M-16 233q0 58 16 134l139 657h295l-147 -696q-8 -26 -8 -66q0 -42 19.5 -59t63.5 -17q30 0 58.5 13.5t52.5 37.5q49 49 74 130h86q-55 -155 -138 -247q-70 -75 -158 -108q-64 -24 -134 -24q-98 0 -155 58q-64 64 -64 187zM33 1298q0 24 9.5 47t26.5 41q35 37 89 37 q49 0 88 -37q17 -17 27 -40t10 -48q0 -53 -37 -88q-39 -36 -88 -36q-53 0 -89 36t-36 88zM401 1298q0 25 9.5 48t26.5 40q37 37 89 37q25 0 48 -10t40 -27t27 -40t10 -48q0 -53 -37 -88q-18 -17 -41 -26.5t-47 -9.5q-51 0 -89 36q-36 34 -36 88z" />
<glyph unicode="&#x458;" horiz-adv-x="492" d="M-414 -313q0 115 110 198q81 62 226 107l219 1032h295l-203 -950q97 32 155 96q62 68 104 197h86q-55 -182 -164 -281q-81 -73 -199 -102l-31 -148q-39 -195 -155 -284q-85 -64 -213 -64q-97 0 -161 50q-33 25 -51 62.5t-18 86.5zM-301 -285q0 -27 17 -45q20 -22 53 -22 q32 0 65 45q34 44 53 137l13 59q-95 -36 -140 -71q-61 -46 -61 -103zM164 1298q0 33 12.5 63.5t34.5 52.5t52 35t63 13t63 -13t52 -35t35 -52.5t13 -63.5t-13 -62.5t-35 -51.5t-52 -34.5t-63 -12.5t-63 12.5t-52 34.5q-22 21 -34.5 51t-12.5 63z" />
<glyph unicode="&#x459;" horiz-adv-x="1526" d="M-78 219q0 73 34 118.5t93 45.5q48 0 77.5 -29.5t29.5 -77.5q0 -44 -20.5 -69.5t-50.5 -25.5q-7 0 -11 1q2 -28 17 -43q20 -22 63 -22q48 0 79 31t53 90q21 60 35 128q10 57 24 117l7 33q32 157 71.5 257t89.5 157q45 53 101.5 73.5t130.5 20.5h302l-72 -332 q65 27 118 35q38 6 87 6q124 0 194 -71.5t70 -200.5q0 -45 -13 -96.5t-39 -102.5q-61 -119 -170 -189q-129 -85 -309 -85q-139 0 -220 70q-81 69 -81 192q0 64 15 117l114 522q-54 0 -92 -22t-67 -69q-28 -45 -51 -117t-48 -185l-4 -20q-31 -145 -52.5 -223t-51.5 -133 q-37 -67 -91.5 -99.5t-136.5 -32.5q-112 0 -172 73q-26 31 -39.5 72.5t-13.5 85.5zM887 246q0 -84 88 -84q38 0 74.5 26.5t65.5 71.5q28 42 44.5 93t16.5 96q0 62 -28 97.5t-83 35.5q-21 0 -62 -12q-42 -12 -59 -25l-51 -242q-6 -14 -6 -34.5v-22.5z" />
<glyph unicode="&#x45a;" horiz-adv-x="1421" d="M-78 0l217 1024h295l-88 -410h232l90 410h274l-72 -332q64 27 118 35q38 6 87 6q124 0 194 -71.5t70 -200.5q0 -45 -13 -96.5t-39 -102.5q-61 -118 -169 -189q-128 -85 -309 -85q-139 0 -220 70q-81 69 -81 192q0 67 14 117l27 125h-227l-105 -492h-295zM782 246 q0 -84 88 -84q38 0 75 26.5t66 71.5q27 43 43.5 93.5t16.5 95.5q0 62 -28 97.5t-82 35.5q-23 0 -62 -12q-42 -12 -59 -25l-52 -242q-6 -14 -6 -34.5v-22.5z" />
<glyph unicode="&#x45b;" d="M-78 0l217 1024h-110l22 111h113l55 258l303 41l-63 -299h256l-25 -111h-256l-53 -248q59 65 130 95q51 20 112 20q105 0 163 -54q64 -61 64 -178q0 -42 -8.5 -86t-26.5 -115q-19 -77 -27 -114.5t-8 -71.5q0 -41 18.5 -63.5t63.5 -22.5q61 0 103 50q32 38 69 131h86 q-76 -225 -192 -315q-82 -64 -189 -64q-127 0 -188 72q-53 62 -53 159q0 40 8.5 88t23.5 114l6 29q13 57 19 90.5t6 59.5q0 105 -74 105q-26 0 -52 -14.5t-47 -40.5q-45 -52 -62 -134l-109 -516h-295z" />
<glyph unicode="&#x45c;" horiz-adv-x="1026" d="M-78 0l219 1024h295l-88 -406q66 66 128 133l15 17q119 128 162 171q71 71 134 92q35 11 73 11q69 0 105 -37.5t36 -97.5q0 -63 -33.5 -98t-95.5 -35q-57 0 -87 35q-27 30 -25 70q-32 -19 -60.5 -44.5t-62.5 -60.5l-20 -22q-14 -14 -38 -42q-25 -29 -61 -65q35 8 86 8 q106 0 153 -49q42 -43 42 -141q0 -33 -12 -97q-5 -25 -9 -52.5t-4 -51.5q0 -76 82 -76q31 0 53.5 10.5t41.5 33.5q18 21 35 53t40 84h86q-129 -379 -373 -379q-122 0 -184.5 60t-62.5 167q0 35 12 105q2 16 4 22q2 20 4 27q4 20 4 41q0 98 -78 98q-26 0 -56 -18l-33 -24 l-42 -34l-90 -432h-295zM475 1149l187 387h215l-248 -387h-154z" />
<glyph unicode="&#x45e;" horiz-adv-x="995" d="M-16 233q0 58 16 134l139 657h295l-147 -696q-6 -25 -6 -52q0 -39 13 -62q15 -28 48 -28q55 0 100 48q42 44 60 120l143 670h295l-203 -950q97 32 155 96q63 69 103 197h86q-55 -182 -164 -281q-80 -72 -198 -102l-31 -148q-39 -196 -156 -284q-85 -64 -213 -64 q-48 0 -89.5 12.5t-71.5 37.5q-32 25 -50 62.5t-18 86.5q0 116 109 199q82 61 225 106l25 110q-60 -66 -130 -93q-54 -21 -116 -21q-98 0 -155 58q-64 64 -64 187zM203 -285q0 -27 17 -45q19 -22 52 -22q31 0 66 45q34 44 53 137l12 59q-93 -35 -139 -71q-61 -46 -61 -103z M266 1300q0 67 37 108.5t100 41.5q60 0 93.5 -28.5t33.5 -82.5q0 -24 -7 -43q-13 -36 -42 -55q24 -8 82 -8q98 0 174 50q91 59 142 190h86q-67 -193 -179 -276q-99 -73 -254 -73q-127 0 -196.5 47t-69.5 129z" />
<glyph unicode="&#x45f;" d="M-16 233q0 58 16 134l139 657h295l-147 -696q-6 -31 -6 -58q0 -84 61 -84q56 0 101 51q36 43 63 130l139 657h295l-147 -696q-9 -30 -9 -66q0 -42 20 -59t64 -17q57 0 102 51q40 45 64 130h86q-55 -156 -133 -247q-66 -75 -149 -108q-61 -24 -129 -24q-88 0 -140 49 t-63 145q-70 -112 -158 -160q-63 -34 -145 -34q-98 0 -155 58q-64 64 -64 187zM309 -229q0 120 109 229h104q-12 -12 -19 -29t-7 -32q0 -20 9 -36.5t22 -33.5t19 -25q23 -32 36.5 -63t13.5 -72q-2 -55 -31.5 -111.5t-79.5 -109.5h-104q12 12 19.5 30t7.5 33q0 24 -10 41.5 t-22.5 33t-16.5 20.5q-24 28 -37 56.5t-13 68.5z" />
<glyph unicode="&#x490;" horiz-adv-x="883" d="M25 1004q0 146 66 259q73 126 224 196q167 77 420 77q53 0 146 -11q102 -12 131 -12q62 0 102 20.5t64 59.5q20 32 31 74.5t24 114.5q42 -36 66 -93t24 -120q0 -129 -77 -204q-37 -36 -90 -55.5t-118 -19.5q-55 0 -121 10.5t-151 30.5l-285 -1331h-295l295 1368 q-65 -2 -113 -23.5t-81 -67.5q-72 -100 -72 -333q0 -66 15 -102q4 -13 10 -23q4 -7 4 -14q-110 0 -163 44q-56 47 -56 155z" />
<glyph unicode="&#x491;" horiz-adv-x="700" d="M-78 0l217 1024h377q81 0 90 31q-33 15 -33 53q0 40 26.5 66t80.5 26q46 0 72 -28.5t26 -73.5q0 -44 -15.5 -83.5t-44.5 -68.5q-31 -32 -76 -49.5t-101 -17.5h-138l-186 -879h-295z" />
<glyph unicode="&#x2000;" horiz-adv-x="1024" />
<glyph unicode="&#x2001;" horiz-adv-x="2048" />
<glyph unicode="&#x2002;" horiz-adv-x="1024" />
<glyph unicode="&#x2003;" horiz-adv-x="2048" />
<glyph unicode="&#x2004;" horiz-adv-x="682" />
<glyph unicode="&#x2005;" horiz-adv-x="512" />
<glyph unicode="&#x2006;" horiz-adv-x="341" />
<glyph unicode="&#x2007;" horiz-adv-x="341" />
<glyph unicode="&#x2008;" horiz-adv-x="256" />
<glyph unicode="&#x2009;" horiz-adv-x="409" />
<glyph unicode="&#x200a;" horiz-adv-x="113" />
<glyph unicode="&#x2010;" horiz-adv-x="594" d="M39 455l37 161h409l-34 -161h-412z" />
<glyph unicode="&#x2011;" horiz-adv-x="594" d="M39 455l37 161h409l-34 -161h-412z" />
<glyph unicode="&#x2012;" horiz-adv-x="594" d="M39 455l37 161h409l-34 -161h-412z" />
<glyph unicode="&#x2013;" horiz-adv-x="721" d="M39 455l37 161h532l-35 -161h-534z" />
<glyph unicode="&#x2014;" horiz-adv-x="909" d="M39 455l37 161h717l-35 -161h-719z" />
<glyph unicode="&#x2018;" horiz-adv-x="428" d="M190 1196q0 78 66 174q67 95 178 170l31 -31q-43 -46 -67.5 -84.5t-24.5 -62.5q0 -20 16 -33q5 -5 27.5 -24t39.5 -45q15 -24 15 -64q0 -63 -38 -103q-40 -40 -99 -40q-61 0 -103 40q-41 39 -41 103z" />
<glyph unicode="&#x2019;" horiz-adv-x="422" d="M223 1397q0 30 10.5 57t28.5 46q38 40 98 40q30 0 57 -10.5t47 -29.5q19 -19 29.5 -45.5t10.5 -57.5q0 -39 -17 -84t-48 -90q-70 -99 -179 -170l-31 30q44 45 68.5 84t24.5 64q0 15 -9 26t-21.5 21.5t-18.5 15.5q-23 19 -36.5 43t-13.5 60z" />
<glyph unicode="&#x201a;" horiz-adv-x="451" d="M-20 156q0 31 10 57.5t29 45.5q38 40 98 40q30 0 57 -10.5t46 -29.5t29.5 -46t10.5 -57q0 -39 -17 -84t-48 -90q-70 -99 -179 -170l-30 30q43 45 67.5 84t24.5 64q0 21 -15 34q-5 4 -19.5 16t-26.5 25t-21 28q-16 22 -16 63z" />
<glyph unicode="&#x201c;" horiz-adv-x="879" d="M190 1196q0 78 66 174q67 95 178 170l31 -31q-43 -46 -67.5 -84.5t-24.5 -62.5q0 -20 16 -33q5 -5 27.5 -24t39.5 -45q15 -24 15 -64q0 -63 -38 -103q-40 -40 -99 -40q-61 0 -103 40q-41 39 -41 103zM588 1196q0 80 65 174q67 95 178 170l31 -31q-43 -46 -67.5 -84.5 t-24.5 -62.5q0 -20 16 -33q5 -5 27.5 -24t39.5 -45q15 -24 15 -64q0 -63 -38 -103q-40 -40 -99 -40q-63 0 -103 40t-40 103z" />
<glyph unicode="&#x201d;" horiz-adv-x="872" d="M223 1397q0 30 10.5 57t28.5 46q38 40 98 40q30 0 57 -10.5t47 -29.5q19 -19 29.5 -45.5t10.5 -57.5q0 -39 -17 -84t-48 -90q-70 -99 -179 -170l-31 30q44 45 68.5 84t24.5 64q0 15 -9 26t-21.5 21.5t-18.5 15.5q-23 19 -36.5 43t-13.5 60zM621 1397q0 31 10 57.5 t29 45.5q38 40 98 40q30 0 57 -10.5t46 -29.5t29.5 -46t10.5 -57q0 -39 -17 -84t-48 -90q-70 -99 -179 -170l-30 30q43 45 67.5 84t24.5 64q0 21 -15 34q-5 4 -19.5 16t-26.5 25t-21 28q-16 22 -16 63z" />
<glyph unicode="&#x201e;" horiz-adv-x="901" d="M-20 156q0 31 10 57.5t29 45.5q38 40 98 40q30 0 57 -10.5t46 -29.5t29.5 -46t10.5 -57q0 -39 -17 -84t-48 -90q-70 -99 -179 -170l-30 30q43 45 67.5 84t24.5 64q0 21 -15 34q-5 4 -19.5 16t-26.5 25t-21 28q-16 22 -16 63zM377 156q0 31 10 57.5t29 45.5q38 40 98 40 q30 0 57 -10.5t46 -29.5t29.5 -46t10.5 -57q0 -39 -16.5 -84t-47.5 -90q-70 -99 -179 -170l-31 30q43 45 67.5 84t24.5 64q0 21 -15 34q-5 4 -19.5 16t-26.5 25t-21 28q-16 22 -16 63z" />
<glyph unicode="&#x2026;" horiz-adv-x="1438" d="M63 154q0 33 12.5 63t34.5 52t52 35t63 13t63 -13t53 -35t35.5 -52t12.5 -63t-12.5 -63t-35.5 -52t-53 -34.5t-63 -12.5t-63 12.5t-52 34.5t-34.5 52t-12.5 63zM545 154q0 33 12.5 63t34.5 52t52 35t63 13t63 -13t52 -35t35 -52t13 -63t-13 -63t-35 -52t-52 -34.5 t-63 -12.5t-63 12.5t-52 34.5t-34.5 52t-12.5 63zM1047 154q0 33 12.5 63t34.5 52t51.5 35t62.5 13t63 -13t53 -35t35.5 -52t12.5 -63t-12.5 -63t-35.5 -52t-53 -34.5t-63 -12.5t-63 12.5t-51 34.5q-22 22 -34.5 52t-12.5 63z" />
<glyph unicode="&#x202f;" horiz-adv-x="409" />
<glyph unicode="&#x2039;" horiz-adv-x="735" d="M41 487l18 84l629 349l-20 -113l-494 -287l397 -237l-24 -117z" />
<glyph unicode="&#x203a;" horiz-adv-x="705" d="M31 166l28 117l492 237l-397 287l18 113l504 -349l-23 -110z" />
<glyph unicode="&#x205f;" horiz-adv-x="512" />
<glyph unicode="&#x20ac;" horiz-adv-x="1038" d="M39 580l29 102h131q6 72 19 135h-128l29 103h124q40 135 108.5 252.5t157.5 203.5q90 87 194.5 135t214.5 48q138 0 220 -74q39 -36 60 -89.5t21 -119.5q0 -43 -10.5 -85t-31.5 -74q-23 -36 -57 -56.5t-78 -20.5q-36 0 -68.5 27.5t-51.5 81.5q13 7 26.5 24.5t23.5 38.5 q23 50 23 86q0 54 -26 80q-20 19 -62 19q-114 0 -208 -136q-87 -126 -136 -341h430l-28 -103h-422q-10 -66 -15 -135h414l-29 -102h-391v-45q0 -157 53 -237q56 -87 175 -87q76 0 155 33q75 30 133 80q-4 -86 -40 -150.5t-97 -107.5q-56 -39 -128.5 -58.5t-149.5 -19.5 q-164 0 -265 95q-90 83 -129 227q-34 118 -34 270h-156z" />
<glyph unicode="&#x2122;" horiz-adv-x="776" d="M-47 1188q0 68 47 111q52 49 162 49q16 0 63 -5q42 -6 90 -6q53 0 76 11l-5 -23q-6 -30 -24 -48q-9 -9 -22 -9q-27 0 -55 7q-40 8 -66 11l-86 -399h-88l88 407q-59 -2 -88 -27q-35 -30 -35 -98q0 -23 3 -29l5 -12q-65 0 -65 60zM305 887l139 430l84 12v-346l136 356h96 l-78 -452h-88l55 319l-129 -319h-84v268l-82 -268h-49z" />
<glyph unicode="&#x25fc;" horiz-adv-x="1140" d="M0 0v1140h1140v-1140h-1140z" />
</font>
</defs>
</svg>
